<svg width="1352" height="1210" viewBox="0 0 1352 1210" fill="none" xmlns="http://www.w3.org/2000/svg">
<g opacity="0.14" filter="url(#filter0_f_352_419)">
<ellipse cx="276" cy="205" rx="276" ry="205" transform="matrix(-1 0 0 1 952 400)" fill="url(#paint0_linear_352_419)"/>
</g>
<path d="M632.275 803.19C634.006 802.199 634.877 800.887 634.877 799.579C634.877 798.271 634.011 796.964 632.275 795.968L592.175 773.002C588.708 771.016 583.037 771.016 579.57 773.002L539.469 795.968C537.733 796.959 536.868 798.271 536.868 799.579C536.868 800.887 537.733 802.194 539.469 803.19L579.57 826.156C583.037 828.142 588.708 828.142 592.175 826.156L632.275 803.19Z" fill="#240924" fill-opacity="0.32"/>
<path d="M632.275 784.982C634.006 783.975 634.877 782.642 634.877 781.314C634.877 779.985 634.011 778.657 632.275 777.646L592.175 754.315C588.708 752.298 583.037 752.298 579.57 754.315L539.469 777.646C537.733 778.652 536.868 779.985 536.868 781.314C536.868 782.642 537.733 783.971 539.469 784.982L579.57 808.313C583.037 810.33 588.708 810.33 592.175 808.313L632.275 784.982Z" fill="#240924" fill-opacity="0.48"/>
<path d="M632.275 768.944C634.006 767.938 634.877 766.604 634.877 765.276C634.877 763.948 634.011 762.619 632.275 761.608L592.175 738.277C588.708 736.26 583.037 736.26 579.57 738.277L539.469 761.608C537.733 762.614 536.868 763.948 536.868 765.276C536.868 766.604 537.733 767.933 539.469 768.944L579.57 792.275C583.037 794.292 588.708 794.292 592.175 792.275L632.275 768.944Z" stroke="#AD5DF0" stroke-miterlimit="10"/>
<path d="M724.937 744.384C726.669 743.394 727.539 742.081 727.539 740.774C727.539 739.466 726.674 738.158 724.937 737.163L684.837 714.197C681.37 712.211 675.699 712.211 672.232 714.197L632.131 737.163C630.395 738.153 629.53 739.466 629.53 740.774C629.53 742.081 630.395 743.389 632.131 744.384L672.232 767.35C675.699 769.336 681.37 769.336 684.837 767.35L724.937 744.384Z" fill="#240924" fill-opacity="0.32"/>
<path d="M724.937 726.176C726.669 725.17 727.539 723.837 727.539 722.508C727.539 721.18 726.674 719.851 724.937 718.84L684.837 695.509C681.37 693.492 675.699 693.492 672.232 695.509L632.131 718.84C630.395 719.847 629.53 721.18 629.53 722.508C629.53 723.837 630.395 725.165 632.131 726.176L672.232 749.507C675.699 751.524 681.37 751.524 684.837 749.507L724.937 726.176Z" fill="#240924" fill-opacity="0.48"/>
<path d="M724.937 710.138C726.669 709.132 727.539 707.799 727.539 706.47C727.539 705.142 726.674 703.814 724.937 702.802L684.837 679.472C681.37 677.454 675.699 677.454 672.232 679.472L632.131 702.802C630.395 703.809 629.53 705.142 629.53 706.47C629.53 707.799 630.395 709.127 632.131 710.138L672.232 733.469C675.699 735.486 681.37 735.486 684.837 733.469L724.937 710.138Z" stroke="#AD5DF0" stroke-miterlimit="10"/>
<path d="M829.184 682.229C830.915 681.239 831.785 679.926 831.785 678.619C831.785 677.311 830.92 676.003 829.184 675.008L789.083 652.042C785.616 650.056 779.945 650.056 776.478 652.042L736.378 675.008C734.642 675.998 733.776 677.311 733.776 678.619C733.776 679.926 734.642 681.234 736.378 682.229L776.478 705.195C779.945 707.181 785.616 707.181 789.083 705.195L829.184 682.229Z" fill="#240924" fill-opacity="0.32"/>
<path d="M927.193 623.209C928.924 622.219 929.795 620.906 929.795 619.599C929.795 618.291 928.929 616.983 927.193 615.988L887.093 593.022C883.626 591.036 877.955 591.036 874.488 593.022L834.387 615.988C832.651 616.978 831.786 618.291 831.786 619.599C831.786 620.906 832.651 622.214 834.387 623.209L874.488 646.176C877.955 648.161 883.626 648.161 887.093 646.176L927.193 623.209Z" fill="#240924" fill-opacity="0.32"/>
<path d="M829.184 664.021C830.915 663.015 831.785 661.682 831.785 660.353C831.785 659.025 830.92 657.696 829.184 656.685L789.083 633.354C785.616 631.337 779.945 631.337 776.478 633.354L736.378 656.685C734.642 657.691 733.776 659.025 733.776 660.353C733.776 661.682 734.642 663.01 736.378 664.021L776.478 687.352C779.945 689.369 785.616 689.369 789.083 687.352L829.184 664.021Z" fill="#240924" fill-opacity="0.48"/>
<path d="M927.193 605.001C928.924 603.995 929.795 602.662 929.795 601.333C929.795 600.005 928.929 598.677 927.193 597.665L887.093 574.335C883.626 572.317 877.955 572.317 874.488 574.335L834.387 597.665C832.651 598.672 831.786 600.005 831.786 601.333C831.786 602.662 832.651 603.99 834.387 605.001L874.488 628.332C877.955 630.349 883.626 630.349 887.093 628.332L927.193 605.001Z" fill="#240924" fill-opacity="0.48"/>
<path d="M829.184 647.983C830.915 646.977 831.785 645.644 831.785 644.315C831.785 642.987 830.92 641.659 829.184 640.647L789.083 617.317C785.616 615.299 779.945 615.299 776.478 617.317L736.378 640.647C734.642 641.654 733.776 642.987 733.776 644.315C733.776 645.644 734.642 646.972 736.378 647.983L776.478 671.314C779.945 673.331 785.616 673.331 789.083 671.314L829.184 647.983Z" stroke="#AD5DF0" stroke-miterlimit="10"/>
<path d="M927.193 588.963C928.924 587.957 929.795 586.624 929.795 585.295C929.795 583.967 928.929 582.639 927.193 581.627L887.093 558.297C883.626 556.279 877.955 556.279 874.488 558.297L834.387 581.627C832.651 582.634 831.786 583.967 831.786 585.295C831.786 586.624 832.651 587.952 834.387 588.963L874.488 612.294C877.955 614.311 883.626 614.311 887.093 612.294L927.193 588.963Z" stroke="#AD5DF0" stroke-miterlimit="10"/>
<path d="M650.914 691.323L591.119 654.417" stroke="#762EB3" stroke-miterlimit="10"/>
<path opacity="0.6" d="M627.968 547.136C631.605 545.035 633.424 542.263 633.424 539.49C633.424 536.718 631.605 533.946 627.968 531.845L543.829 483.187C536.554 478.979 524.654 478.979 517.38 483.187L433.24 531.845C429.603 533.946 427.785 536.718 427.785 539.49C427.785 542.263 429.603 545.035 433.24 547.136L517.38 595.794C524.654 600.002 536.554 600.002 543.829 595.794L627.968 547.136Z" fill="url(#paint1_linear_352_419)"/>
<path d="M627.968 574.444C631.605 572.343 633.424 569.571 633.424 566.798C633.424 564.026 631.605 561.254 627.968 559.153L543.829 510.495C536.554 506.287 524.654 506.287 517.38 510.495L433.24 559.153C429.603 561.254 427.785 564.026 427.785 566.798C427.785 569.571 429.603 572.343 433.24 574.444L517.38 623.102C524.654 627.31 536.554 627.31 543.829 623.102L627.968 574.444Z" fill="#240924" fill-opacity="0.72"/>
<path d="M627.968 598.16C631.605 596.059 633.424 593.287 633.424 590.515C633.424 587.742 631.605 584.97 627.968 582.869L543.829 534.211C536.554 530.003 524.654 530.003 517.38 534.211L433.24 582.869C429.603 584.97 427.785 587.742 427.785 590.515C427.785 593.287 429.603 596.059 433.24 598.16L517.38 646.818C524.654 651.026 536.554 651.026 543.829 646.818L627.968 598.16Z" fill="#240924" fill-opacity="0.38"/>
<path d="M755.605 629.4L698.136 593.314" stroke="#762EB3" stroke-miterlimit="10"/>
<path d="M462.483 663.75H462.492V663.858C462.492 663.858 462.492 663.786 462.483 663.75Z" fill="#CED3F8"/>
<path d="M582.308 573.712L617.746 596.221L640.854 610.429C648.696 615.25 658.552 615.372 666.511 610.746L785.721 541.459C792.134 537.732 800.082 537.859 806.372 541.79L853.17 571.039" stroke="#762EB3" stroke-miterlimit="10"/>
<path d="M581.862 573.712L638.234 609.28C644.539 613.257 644.431 622.486 638.036 626.316L514.468 700.322C508.249 704.047 507.935 712.943 513.875 717.097L560.478 749.683" stroke="#762EB3" stroke-miterlimit="10"/>
<path d="M575.182 451.298V542.902C575.182 544.019 574.447 545.132 572.983 545.979L539.08 565.554C536.151 567.247 531.354 567.247 528.421 565.554L494.518 545.979C493.054 545.132 492.319 544.016 492.319 542.902V451.298H575.182Z" fill="url(#paint2_linear_352_419)"/>
<path d="M572.983 454.374C574.447 453.528 575.182 452.415 575.182 451.298C575.182 450.181 574.447 449.068 572.983 448.221L539.08 428.646C536.151 426.953 531.354 426.953 528.421 428.646L494.518 448.221C493.054 449.068 492.319 450.181 492.319 451.298C492.319 452.415 493.054 453.528 494.518 454.374L528.421 473.95C531.35 475.642 536.147 475.642 539.08 473.95L572.983 454.374Z" fill="#F6F6FB"/>
<g style="mix-blend-mode:multiply">
<path d="M533.75 470.092H521.742L494.518 454.374C493.053 453.528 492.319 452.411 492.319 451.298C492.319 450.181 493.053 449.068 494.518 448.221L514.151 436.886H533.75V470.092Z" fill="#DAE0F5"/>
</g>
<path d="M566.309 420.41V451.294C566.309 452.171 565.733 453.045 564.581 453.709L537.941 469.091C535.637 470.421 531.869 470.421 529.566 469.091L502.925 453.709C501.773 453.045 501.198 452.167 501.198 451.29V420.406H566.309V420.41Z" fill="url(#paint3_linear_352_419)"/>
<path d="M564.581 422.829C565.733 422.165 566.309 421.287 566.309 420.414C566.309 419.54 565.733 418.659 564.581 417.994L537.941 402.612C535.637 401.283 531.869 401.283 529.566 402.612L502.925 417.994C501.773 418.659 501.198 419.536 501.198 420.41C501.198 421.283 501.773 422.161 502.925 422.829L529.566 438.211C531.869 439.541 535.637 439.541 537.941 438.211L564.581 422.829Z" fill="#F6F6FB"/>
<g style="mix-blend-mode:multiply">
<path d="M502.924 417.994L529.564 402.612C530.716 401.947 532.235 401.615 533.75 401.615V432.959H520.47L502.924 422.829C501.772 422.165 501.196 421.287 501.196 420.41C501.196 419.533 501.772 418.659 502.924 417.994Z" fill="#DAE0F5"/>
</g>
<path d="M555.486 399.791V420.41C555.486 420.993 555.104 421.581 554.335 422.025L536.549 432.294C535.01 433.183 532.494 433.183 530.956 432.294L513.17 422.025C512.401 421.581 512.018 420.997 512.018 420.41V399.791H555.486Z" fill="url(#paint4_linear_352_419)"/>
<path d="M530.674 412.874C532.367 413.851 535.138 413.851 536.831 412.874L555.486 402.102V402.551C555.486 403.134 555.104 403.722 554.335 404.166L536.549 414.435C535.01 415.324 532.494 415.324 530.956 414.435L513.17 404.166C512.401 403.722 512.018 403.138 512.018 402.551V402.102L530.674 412.874Z" fill="url(#paint5_linear_352_419)"/>
<path d="M557.684 397.746V399.791C557.684 400.436 557.258 401.078 556.412 401.569L536.829 412.873C535.136 413.851 532.365 413.851 530.672 412.873L511.089 401.569C510.243 401.082 509.821 400.436 509.821 399.791V397.746H557.684Z" fill="url(#paint6_linear_352_419)"/>
<path d="M556.412 399.524C557.258 399.037 557.684 398.392 557.684 397.747C557.684 397.101 557.262 396.46 556.412 395.969L536.833 384.664C535.14 383.686 532.369 383.686 530.676 384.664L511.093 395.969C510.246 396.456 509.825 397.101 509.821 397.747C509.821 398.392 510.243 399.034 511.089 399.524L530.672 410.829C532.365 411.807 535.136 411.807 536.829 410.829L556.412 399.524Z" fill="#F6F6FB"/>
<path d="M569.049 539.343L571.6 537.87V507.083L569.049 508.555V539.343Z" fill="#A2B2ED"/>
<path d="M562.211 543.289L564.766 541.816V511.029L562.211 512.502V543.289Z" fill="#A2B2ED"/>
<path d="M555.379 547.235L557.93 545.762V514.975L555.379 516.448V547.235Z" fill="#A2B2ED"/>
<path d="M548.543 551.181L551.098 549.708V518.921L548.543 520.393V551.181Z" fill="#A2B2ED"/>
<path d="M541.707 555.127L544.258 553.655V522.867L541.707 524.34V555.127Z" fill="#A2B2ED"/>
<path d="M569.049 501.382L571.6 499.906V463.661L569.049 465.138V501.382Z" fill="#A2B2ED"/>
<path d="M562.211 505.328L564.766 503.852V467.607L562.211 469.084V505.328Z" fill="#A2B2ED"/>
<path d="M555.379 509.274L557.93 507.802V471.553L555.379 473.03V509.274Z" fill="#A2B2ED"/>
<path d="M548.543 513.22L551.098 511.748V475.499L548.543 476.976V513.22Z" fill="#A2B2ED"/>
<path d="M541.707 517.166L544.258 515.694V479.445L541.707 480.922V517.166Z" fill="#A2B2ED"/>
<path d="M498.453 539.343L495.902 537.87V507.083L498.453 508.555V539.343Z" fill="#8F99C9"/>
<path d="M505.291 543.289L502.736 541.816V511.029L505.291 512.502V543.289Z" fill="#8F99C9"/>
<path d="M512.123 547.235L509.572 545.762V514.975L512.123 516.448V547.235Z" fill="#8F99C9"/>
<path d="M518.959 551.181L516.404 549.708V518.921L518.959 520.393V551.181Z" fill="#8F99C9"/>
<path d="M525.793 555.127L523.242 553.655V522.867L525.793 524.34V555.127Z" fill="#8F99C9"/>
<path d="M498.453 501.382L495.902 499.906V463.661L498.453 465.138V501.382Z" fill="#8F99C9"/>
<path d="M505.291 505.328L502.736 503.852V467.607L505.291 469.084V505.328Z" fill="#8F99C9"/>
<path d="M512.123 509.274L509.572 507.802V471.553L512.123 473.03V509.274Z" fill="#8F99C9"/>
<path d="M518.959 513.22L516.404 511.748V475.499L518.959 476.976V513.22Z" fill="#8F99C9"/>
<path d="M525.793 517.166L523.242 515.694V479.445L525.793 480.922V517.166Z" fill="#8F99C9"/>
<path style="mix-blend-mode:multiply" d="M502.925 445.087L529.566 460.469C531.869 461.799 535.637 461.799 537.941 460.469L564.581 445.087C565.733 444.422 566.309 443.545 566.309 442.671V446.115C566.309 446.992 565.733 447.866 564.581 448.531L537.941 463.913C535.637 465.242 531.869 465.242 529.566 463.913L502.925 448.531C501.773 447.866 501.198 446.989 501.198 446.111V442.668C501.198 443.545 501.773 444.418 502.925 445.087Z" fill="url(#paint7_linear_352_419)"/>
<path style="mix-blend-mode:multiply" d="M502.925 437.439L529.566 452.821C531.869 454.15 535.637 454.15 537.941 452.821L564.581 437.439C565.733 436.774 566.309 435.896 566.309 435.023V438.467C566.309 439.344 565.733 440.217 564.581 440.882L537.941 456.264C535.637 457.594 531.869 457.594 529.566 456.264L502.925 440.882C501.773 440.217 501.198 439.34 501.198 438.463V435.019C501.198 435.896 501.773 436.77 502.925 437.439Z" fill="url(#paint8_linear_352_419)"/>
<path style="mix-blend-mode:multiply" d="M502.925 429.794L529.566 445.176C531.869 446.505 535.637 446.505 537.941 445.176L564.581 429.794C565.733 429.129 566.309 428.252 566.309 427.378V430.822C566.309 431.699 565.733 432.573 564.581 433.237L537.941 448.619C535.637 449.949 531.869 449.949 529.566 448.619L502.925 433.237C501.773 432.573 501.198 431.695 501.198 430.822V427.378C501.198 428.256 501.773 429.129 502.925 429.798V429.794Z" fill="url(#paint9_linear_352_419)"/>
<g style="mix-blend-mode:multiply">
<path d="M551.331 423.757L553.441 422.539V405.677L551.331 406.895V423.757Z" fill="#DAE0F5"/>
<path d="M546.831 426.354L548.941 425.136V408.274L546.831 409.491V426.354Z" fill="#DAE0F5"/>
<path d="M542.335 428.955L544.445 427.734V410.871L542.335 412.093V428.955Z" fill="#DAE0F5"/>
<path d="M537.831 431.552L539.941 430.335V413.473L537.831 414.69V431.552Z" fill="#DAE0F5"/>
<path d="M515.764 423.521L513.541 422.242V404.506L515.764 405.789V423.521Z" fill="#DAE0F5"/>
<path d="M520.494 426.253L518.276 424.974V407.238L520.494 408.522V426.253Z" fill="#DAE0F5"/>
<path d="M525.229 428.986L523.01 427.707V409.971L525.229 411.254V428.986Z" fill="#DAE0F5"/>
<path d="M529.959 431.718L527.741 430.439V412.703L529.959 413.986V431.718Z" fill="#DAE0F5"/>
</g>
<path d="M548.543 533.99L551.098 532.517V529.313L548.543 530.786V533.99Z" fill="url(#paint10_linear_352_419)"/>
<path d="M569.049 533.522L571.6 532.05V528.846L569.049 530.318V533.522Z" fill="url(#paint11_linear_352_419)"/>
<path d="M548.543 488.107L551.098 486.634V483.43L548.543 484.903V488.107Z" fill="url(#paint12_linear_352_419)"/>
<path d="M546.834 451.089L549.385 449.617V446.212L546.834 447.684V451.089Z" fill="url(#paint13_linear_352_419)"/>
<path d="M558.406 452.055L560.957 450.583V447.178L558.406 448.65V452.055Z" fill="url(#paint14_linear_352_419)"/>
<path d="M517.152 449.056L514.598 447.584V444.179L517.152 445.655V449.056Z" fill="#AD5DF0"/>
<path d="M548.543 502.298L551.098 500.822V497.618L548.543 499.094V502.298Z" fill="url(#paint15_linear_352_419)"/>
<path d="M505.291 489.39L502.736 487.917V484.713L505.291 486.186V489.39Z" fill="#AD5DF0"/>
<path d="M518.959 541.515L516.404 540.039V536.835L518.959 538.311V541.515Z" fill="#AD5DF0"/>
<path d="M518.959 510.113L516.404 508.64V505.436L518.959 506.909V510.113Z" fill="#AD5DF0"/>
<path d="M634.236 530.903L637.551 443.627L548.018 494.789C540.372 499.158 530.992 499.182 523.324 494.853L432.581 443.627L429.122 532.793C428.948 537.272 431.285 541.474 435.182 543.69L526.087 595.374C529.726 597.443 534.181 597.466 537.842 595.434L623.958 547.631C630.073 544.236 633.971 537.893 634.236 530.903Z" fill="url(#paint16_linear_352_419)"/>
<path opacity="0.95" d="M574.897 758.3C575.087 758.176 575.29 758.051 575.518 757.936C575.693 757.848 575.883 757.77 576.072 757.692C584.014 753.849 594.979 753.513 600.798 757C603.314 758.508 604.655 760.611 604.579 762.922C604.47 766.063 601.821 769.214 597.31 771.585C597.263 771.612 597.22 771.635 597.168 771.663C597.159 771.663 597.149 771.672 597.14 771.677C597.125 771.686 597.106 771.695 597.092 771.705C592.747 773.937 587.402 775.076 582.474 775.076C578.366 775.076 574.542 774.278 571.836 772.659C569.32 771.151 567.974 769.048 568.055 766.737C568.159 763.697 570.642 760.648 574.897 758.305V758.3ZM569.476 766.778C569.457 767.277 569.533 767.756 569.685 768.222L574.75 765.625C573.57 764.237 572.945 762.816 572.988 761.497C572.988 761.405 572.997 761.312 573.006 761.216C570.817 762.955 569.538 764.915 569.476 766.783V766.778ZM577.427 758.679L582.45 761.672L587.175 759.251C584.976 758.605 582.763 758.259 580.797 758.259C579.555 758.259 578.413 758.402 577.427 758.683V758.679ZM583.862 762.512L590.311 766.354L595.619 763.633C594.884 762.991 594.012 762.36 593.027 761.774C591.771 761.027 590.411 760.39 589.023 759.869L583.862 762.516V762.512ZM591.723 767.194L596.846 770.242C597.765 769.68 598.248 768.946 598.277 768.061C598.31 767.023 597.732 765.837 596.666 764.657L591.723 767.194ZM595.249 770.916L590.259 767.945L585.549 770.362C589.127 771.409 592.719 771.649 595.249 770.916ZM588.852 767.106L582.403 763.264L577.091 765.99C577.821 766.626 578.683 767.249 579.664 767.83C580.934 768.587 582.303 769.223 583.706 769.744L588.852 767.101V767.106ZM580.991 762.424L575.859 759.366C575.797 759.398 575.741 759.431 575.679 759.463C574.869 760.012 574.437 760.708 574.409 761.539C574.376 762.581 574.963 763.776 576.034 764.961L580.986 762.42L580.991 762.424ZM582.303 756.94C584.426 757.097 586.705 757.572 588.933 758.351L593.278 756.123C592.273 756.008 591.235 755.948 590.174 755.948C587.606 755.948 584.91 756.289 582.303 756.944V756.94ZM600.049 758.181C598.793 757.429 597.272 756.866 595.59 756.497L590.657 759.029C591.728 759.486 592.775 760.003 593.766 760.593C595.003 761.331 596.069 762.129 596.945 762.95L602.314 760.196C601.793 759.454 601.039 758.776 600.049 758.181ZM603.153 762.881C603.172 762.383 603.096 761.903 602.944 761.437L597.945 764.002C599.111 765.381 599.732 766.797 599.689 768.107C599.689 768.204 599.679 768.305 599.665 768.407C601.826 766.677 603.086 764.73 603.148 762.876L603.153 762.881ZM590.529 772.683C588.378 772.54 586.056 772.06 583.787 771.266L579.351 773.54C582.844 773.937 586.791 773.642 590.529 772.678V772.683ZM572.58 771.479C573.836 772.23 575.357 772.789 577.039 773.162L582.043 770.593C580.962 770.132 579.91 769.606 578.911 769.011C577.683 768.277 576.622 767.489 575.75 766.672L570.31 769.463C570.832 770.206 571.585 770.884 572.575 771.479H572.58Z" fill="#FF5A83"/>
<g opacity="0.95">
<path d="M675.884 714.255C676.211 714.096 676.429 713.868 676.459 713.61C676.52 713.093 675.815 712.65 674.883 712.62L664.207 712.271L664.916 706.363C664.977 705.847 664.272 705.404 663.34 705.374C662.408 705.344 661.603 705.735 661.542 706.252L660.719 713.093C660.689 713.343 660.837 713.584 661.133 713.769C661.429 713.954 661.847 714.066 662.291 714.083L674.652 714.487C675.118 714.505 675.554 714.41 675.876 714.255H675.884Z" fill="url(#paint17_linear_352_419)"/>
<path d="M694.95 705.133C695.276 704.974 695.494 704.746 695.524 704.488L696.352 697.651C696.382 697.401 696.234 697.16 695.938 696.975C695.642 696.79 695.224 696.678 694.78 696.661L682.41 696.257C681.478 696.226 680.672 696.618 680.611 697.134C680.55 697.651 681.256 698.094 682.188 698.124L692.864 698.472L692.15 704.38C692.089 704.897 692.794 705.34 693.726 705.37C694.192 705.387 694.627 705.293 694.95 705.138V705.133Z" fill="url(#paint18_linear_352_419)"/>
<path d="M687.476 706.806C687.713 706.7 687.892 706.561 687.99 706.398C688.271 705.929 687.753 705.435 686.838 705.296L671.245 702.922C670.33 702.784 669.361 703.049 669.08 703.518C668.799 703.987 669.316 704.481 670.232 704.619L685.825 706.993C686.418 707.083 687.039 707.002 687.472 706.806H687.476Z" fill="url(#paint19_linear_352_419)"/>
</g>
<path opacity="0.95" d="M870.522 592.527L867.139 590.795L871.113 588.56C870.47 587.961 869.974 587.251 869.738 586.537L864.752 586.887L865.007 583.403L870.187 583.039C870.612 582.283 871.647 581.168 872.1 580.813L868.637 579.039L873.49 576.306L876.954 578.081C877.7 577.786 879.619 577.214 881.008 576.952L881.372 574.113L887.851 573.712L887.492 576.551C888.834 576.643 890.653 577.007 891.319 577.191L895.289 574.956L898.672 576.689L894.698 578.924C895.79 579.698 896.678 580.666 896.914 581.38L902.174 581.053L901.73 584.546L896.47 584.873C896.045 585.634 894.802 586.721 894.556 587.104L898.02 588.878L893.167 591.61L889.703 589.836C889.008 589.988 887.038 590.703 885.649 590.965L885.285 593.804L878.806 594.205L879.165 591.366C877.823 591.274 876.85 591.223 874.492 590.292L870.517 592.527H870.522ZM887.983 586.339C890.932 584.68 891.239 582.265 888.668 580.952C886.097 579.634 881.627 579.915 878.678 581.574C875.73 583.233 875.422 585.647 877.993 586.961C880.564 588.274 885.034 587.998 887.983 586.339Z" fill="url(#paint20_linear_352_419)"/>
<g opacity="0.95">
<path d="M786.077 650.575L795.939 645.306C796.214 645.156 796.62 645.117 796.837 645.218L797.542 645.538C797.759 645.639 797.716 645.841 797.436 645.986L787.574 651.255C787.299 651.404 786.894 651.444 786.676 651.343L785.971 651.023C785.754 650.922 785.797 650.72 786.077 650.575Z" fill="url(#paint21_linear_352_419)"/>
<path d="M789.006 651.744L793.772 648.978L793.822 648.951L798.588 646.185C798.89 646.034 799.12 646.025 799.305 646.096C799.652 646.278 799.755 646.63 799.548 646.959L798.251 649.027C798.093 649.276 797.719 649.605 797.359 649.818L796.534 650.299L796.485 650.325L795.66 650.806C795.3 651.015 794.71 651.241 794.264 651.344L790.52 652.202C789.925 652.34 789.263 652.313 788.898 652.14C788.749 652.046 788.745 651.922 789.002 651.748L789.006 651.744Z" fill="url(#paint22_linear_352_419)"/>
<path d="M776.08 640.6C781.351 637.572 789.324 637.067 792.256 639.93C792.872 640.531 793.125 641.266 793.107 642.041V642.142C793.097 642.541 793.064 642.844 792.966 643.097C792.693 643.812 793.144 644.014 793.623 644.258C793.797 644.345 793.755 644.519 793.529 644.652L785.133 649.475C784.884 649.617 784.527 649.659 784.316 649.571C783.771 649.346 783.202 649.135 782.136 649.324C781.675 649.406 781.112 649.438 780.365 649.475L780.144 649.484C778.687 649.553 777.292 649.48 776.113 649.204C770.498 647.887 770.808 643.633 776.075 640.605L776.08 640.6Z" fill="url(#paint23_linear_352_419)"/>
<path d="M795.42 639.064C795.607 638.95 795.821 638.851 796.05 638.769L800.325 637.322C800.788 637.164 801.278 637.109 801.7 637.164C802.121 637.218 802.423 637.377 802.548 637.611C802.746 637.966 802.496 638.431 801.913 638.786C801.726 638.9 801.512 638.999 801.283 639.081L797.008 640.528C796.545 640.686 796.055 640.741 795.633 640.686C795.212 640.632 794.91 640.473 794.785 640.238C794.587 639.883 794.837 639.419 795.42 639.064Z" fill="url(#paint24_linear_352_419)"/>
<path d="M770.327 648.581C770.14 648.696 769.926 648.794 769.697 648.876L765.421 650.327C764.457 650.655 763.462 650.524 763.197 650.042C762.999 649.686 763.249 649.221 763.832 648.866C764.02 648.751 764.233 648.652 764.462 648.575L768.739 647.125C769.702 646.797 770.697 646.928 770.963 647.41C771.155 647.766 770.91 648.231 770.327 648.586V648.581Z" fill="url(#paint25_linear_352_419)"/>
<path d="M780.843 637.546C781.002 637.843 780.8 638.232 780.32 638.529C780.166 638.625 779.99 638.707 779.802 638.775C779.416 638.908 779.017 638.954 778.67 638.908C778.323 638.862 778.074 638.73 777.971 638.533L777.003 636.737C776.84 636.44 777.046 636.052 777.526 635.755C777.68 635.659 777.856 635.576 778.044 635.512C778.837 635.238 779.656 635.348 779.875 635.75L780.843 637.546Z" fill="url(#paint26_linear_352_419)"/>
<path d="M772.07 653.714C771.959 653.534 772.012 653.321 772.216 653.107L774.074 651.163C774.176 651.058 774.309 650.958 774.468 650.87C774.959 650.594 775.632 650.46 776.172 650.523C776.911 650.607 777.168 651.033 776.747 651.472L774.889 653.417C774.787 653.521 774.654 653.622 774.495 653.709C774.004 653.985 773.331 654.119 772.791 654.057C772.433 654.015 772.176 653.893 772.07 653.714Z" fill="url(#paint27_linear_352_419)"/>
<path d="M793.532 634.544L791.672 636.488C791.571 636.593 791.438 636.693 791.278 636.781C790.787 637.053 790.118 637.191 789.574 637.128C788.834 637.044 788.577 636.618 788.994 636.179L790.853 634.234C790.955 634.13 791.088 634.029 791.247 633.941C791.739 633.665 792.412 633.532 792.952 633.594C793.311 633.636 793.568 633.757 793.674 633.937C793.785 634.117 793.731 634.33 793.528 634.544H793.532Z" fill="url(#paint28_linear_352_419)"/>
<path d="M771.823 642.796C771.728 642.889 771.604 642.979 771.456 643.057C770.998 643.303 770.37 643.422 769.867 643.366L766.814 643.027C766.48 642.99 766.24 642.882 766.141 642.722C766.038 642.562 766.088 642.372 766.278 642.181C766.372 642.088 766.496 641.999 766.645 641.921C767.103 641.678 767.726 641.555 768.233 641.611L771.286 641.95C771.621 641.988 771.86 642.096 771.959 642.256C772.062 642.416 772.013 642.606 771.823 642.796Z" fill="url(#paint29_linear_352_419)"/>
</g>
<defs>
<filter id="filter0_f_352_419" x="0" y="0" width="1352" height="1210" filterUnits="userSpaceOnUse" color-interpolation-filters="sRGB">
<feFlood flood-opacity="0" result="BackgroundImageFix"/>
<feBlend mode="normal" in="SourceGraphic" in2="BackgroundImageFix" result="shape"/>
<feGaussianBlur stdDeviation="200" result="effect1_foregroundBlur_352_419"/>
</filter>
<linearGradient id="paint0_linear_352_419" x1="600.744" y1="347.475" x2="232.965" y2="-166.651" gradientUnits="userSpaceOnUse">
<stop stop-color="#4BA1FC"/>
<stop offset="1" stop-color="#EC2AED"/>
</linearGradient>
<linearGradient id="paint1_linear_352_419" x1="409.626" y1="580.815" x2="505.454" y2="408.757" gradientUnits="userSpaceOnUse">
<stop stop-color="#4BA1FC"/>
<stop offset="1" stop-color="#EC2AED"/>
</linearGradient>
<linearGradient id="paint2_linear_352_419" x1="575.182" y1="509.058" x2="492.319" y2="509.058" gradientUnits="userSpaceOnUse">
<stop offset="0.42" stop-color="#CED3F8"/>
<stop offset="0.53" stop-color="#AFB5D7"/>
<stop offset="0.56" stop-color="#A5ABCC"/>
</linearGradient>
<linearGradient id="paint3_linear_352_419" x1="566.309" y1="445.253" x2="501.198" y2="445.253" gradientUnits="userSpaceOnUse">
<stop offset="0.42" stop-color="#CED3F8"/>
<stop offset="0.53" stop-color="#AFB5D7"/>
<stop offset="0.56" stop-color="#A5ABCC"/>
</linearGradient>
<linearGradient id="paint4_linear_352_419" x1="555.486" y1="416.375" x2="512.015" y2="416.375" gradientUnits="userSpaceOnUse">
<stop offset="0.42" stop-color="#CED3F8"/>
<stop offset="0.53" stop-color="#AFB5D7"/>
<stop offset="0.56" stop-color="#A5ABCC"/>
</linearGradient>
<linearGradient id="paint5_linear_352_419" x1="555.486" y1="408.599" x2="512.015" y2="408.599" gradientUnits="userSpaceOnUse">
<stop offset="0.42" stop-color="#BBC0E6"/>
<stop offset="0.56" stop-color="#A5ABCC"/>
</linearGradient>
<linearGradient id="paint6_linear_352_419" x1="557.684" y1="405.677" x2="509.821" y2="405.677" gradientUnits="userSpaceOnUse">
<stop offset="0.42" stop-color="#DAE0F5"/>
<stop offset="0.56" stop-color="#BBC0E6"/>
</linearGradient>
<linearGradient id="paint7_linear_352_419" x1="566.309" y1="453.787" x2="501.198" y2="453.787" gradientUnits="userSpaceOnUse">
<stop offset="0.42" stop-color="#E8ECF7"/>
<stop offset="0.56" stop-color="#DAE0F5"/>
</linearGradient>
<linearGradient id="paint8_linear_352_419" x1="575.182" y1="446.142" x2="574.796" y2="446.142" gradientUnits="userSpaceOnUse">
<stop offset="0.42" stop-color="#E8ECF7"/>
<stop offset="0.56" stop-color="#DAE0F5"/>
</linearGradient>
<linearGradient id="paint9_linear_352_419" x1="575.182" y1="438.497" x2="574.796" y2="438.497" gradientUnits="userSpaceOnUse">
<stop offset="0.42" stop-color="#E8ECF7"/>
<stop offset="0.56" stop-color="#DAE0F5"/>
</linearGradient>
<linearGradient id="paint10_linear_352_419" x1="549.82" y1="529.313" x2="549.82" y2="533.99" gradientUnits="userSpaceOnUse">
<stop stop-color="#0498EB"/>
<stop offset="1" stop-color="#1430FB"/>
</linearGradient>
<linearGradient id="paint11_linear_352_419" x1="569.049" y1="528.846" x2="572.726" y2="530.033" gradientUnits="userSpaceOnUse">
<stop stop-color="#FC4760"/>
<stop offset="1" stop-color="#FF67C3"/>
</linearGradient>
<linearGradient id="paint12_linear_352_419" x1="548.543" y1="483.43" x2="552.225" y2="484.62" gradientUnits="userSpaceOnUse">
<stop stop-color="#FC4760"/>
<stop offset="1" stop-color="#FF67C3"/>
</linearGradient>
<linearGradient id="paint13_linear_352_419" x1="546.834" y1="446.212" x2="550.539" y2="447.359" gradientUnits="userSpaceOnUse">
<stop stop-color="#FC4760"/>
<stop offset="1" stop-color="#FF67C3"/>
</linearGradient>
<linearGradient id="paint14_linear_352_419" x1="559.682" y1="447.178" x2="559.682" y2="452.055" gradientUnits="userSpaceOnUse">
<stop stop-color="#0498EB"/>
<stop offset="1" stop-color="#1430FB"/>
</linearGradient>
<linearGradient id="paint15_linear_352_419" x1="549.82" y1="497.618" x2="549.82" y2="502.298" gradientUnits="userSpaceOnUse">
<stop stop-color="#0498EB"/>
<stop offset="1" stop-color="#1430FB"/>
</linearGradient>
<linearGradient id="paint16_linear_352_419" x1="533.305" y1="450.755" x2="533.305" y2="598.66" gradientUnits="userSpaceOnUse">
<stop stop-color="#E531EE" stop-opacity="0"/>
<stop offset="1" stop-color="#EC2AED" stop-opacity="0.51"/>
</linearGradient>
<linearGradient id="paint17_linear_352_419" x1="660.715" y1="705.372" x2="669.337" y2="718.998" gradientUnits="userSpaceOnUse">
<stop stop-color="#8EEFF8"/>
<stop offset="0.0001" stop-color="#A0E6F9"/>
<stop offset="1" stop-color="#33B0E4"/>
</linearGradient>
<linearGradient id="paint18_linear_352_419" x1="680.608" y1="696.255" x2="689.23" y2="709.881" gradientUnits="userSpaceOnUse">
<stop stop-color="#8EEFF8"/>
<stop offset="0.0001" stop-color="#A0E6F9"/>
<stop offset="1" stop-color="#33B0E4"/>
</linearGradient>
<linearGradient id="paint19_linear_352_419" x1="669.003" y1="702.886" x2="670.954" y2="711.096" gradientUnits="userSpaceOnUse">
<stop stop-color="#8EEFF8"/>
<stop offset="0.0001" stop-color="#A0E6F9"/>
<stop offset="1" stop-color="#33B0E4"/>
</linearGradient>
<linearGradient id="paint20_linear_352_419" x1="864.752" y1="573.712" x2="882.019" y2="605.242" gradientUnits="userSpaceOnUse">
<stop stop-color="#FFCF50"/>
<stop offset="1" stop-color="#FF7334"/>
</linearGradient>
<linearGradient id="paint21_linear_352_419" x1="791.757" y1="645.162" x2="791.757" y2="651.399" gradientUnits="userSpaceOnUse">
<stop stop-color="#00ECA5"/>
<stop offset="1" stop-color="#02C27D"/>
</linearGradient>
<linearGradient id="paint22_linear_352_419" x1="794.225" y1="646.053" x2="794.225" y2="652.29" gradientUnits="userSpaceOnUse">
<stop stop-color="#00ECA5"/>
<stop offset="1" stop-color="#02C27D"/>
</linearGradient>
<linearGradient id="paint23_linear_352_419" x1="782.872" y1="638.034" x2="782.872" y2="649.617" gradientUnits="userSpaceOnUse">
<stop stop-color="#00ECA5"/>
<stop offset="1" stop-color="#02C27D"/>
</linearGradient>
<linearGradient id="paint24_linear_352_419" x1="798.667" y1="637.143" x2="798.667" y2="640.707" gradientUnits="userSpaceOnUse">
<stop stop-color="#00ECA5"/>
<stop offset="1" stop-color="#02C27D"/>
</linearGradient>
<linearGradient id="paint25_linear_352_419" x1="767.079" y1="646.944" x2="767.079" y2="650.508" gradientUnits="userSpaceOnUse">
<stop stop-color="#00ECA5"/>
<stop offset="1" stop-color="#02C27D"/>
</linearGradient>
<linearGradient id="paint26_linear_352_419" x1="778.922" y1="635.361" x2="778.922" y2="638.925" gradientUnits="userSpaceOnUse">
<stop stop-color="#00ECA5"/>
<stop offset="1" stop-color="#02C27D"/>
</linearGradient>
<linearGradient id="paint27_linear_352_419" x1="774.481" y1="650.508" x2="774.481" y2="654.072" gradientUnits="userSpaceOnUse">
<stop stop-color="#00ECA5"/>
<stop offset="1" stop-color="#02C27D"/>
</linearGradient>
<linearGradient id="paint28_linear_352_419" x1="791.263" y1="633.579" x2="791.263" y2="637.143" gradientUnits="userSpaceOnUse">
<stop stop-color="#00ECA5"/>
<stop offset="1" stop-color="#02C27D"/>
</linearGradient>
<linearGradient id="paint29_linear_352_419" x1="769.05" y1="641.598" x2="769.05" y2="643.38" gradientUnits="userSpaceOnUse">
<stop stop-color="#00ECA5"/>
<stop offset="1" stop-color="#02C27D"/>
</linearGradient>
</defs>
</svg>
