<svg width="14" height="32" viewBox="0 0 14 32" fill="none" xmlns="http://www.w3.org/2000/svg">
<path d="M13.1417 17.0559H11.3935C9.98003 17.0559 9.12451 17.9498 9.12451 19.9983V24.9893C9.12451 29.0492 6.52077 31.2467 2.46637 31.2467H0.978516V28.4532H1.90842C4.69815 28.4532 6.00002 27.2241 6.00002 24.2444V19.9983C6.00002 17.3911 7.15311 16.2737 8.52937 15.6778C7.15311 15.0818 6.00002 13.9645 6.00002 11.3572V7.11117C6.00002 4.13147 4.69815 2.90235 1.90842 2.90235H0.978516V0.108887H2.46637C6.52077 0.108887 9.12451 2.30641 9.12451 6.36624V11.3572C9.12451 13.4058 9.98003 14.2997 11.3935 14.2997H13.1417V17.0559Z" fill="#333F66"/>
</svg>
