<svg width="13" height="32" viewBox="0 0 13 32" fill="none" xmlns="http://www.w3.org/2000/svg">
<path d="M0.840705 17.0559H2.58893C4.00239 17.0559 4.85791 17.9498 4.85791 19.9983V24.9893C4.85791 29.0492 7.46165 31.2467 11.5161 31.2467H13.0039V28.4532H12.074C9.28427 28.4532 7.9824 27.2241 7.9824 24.2444V19.9983C7.9824 17.3911 6.82932 16.2737 5.45305 15.6778C6.82932 15.0818 7.9824 13.9645 7.9824 11.3572V7.11117C7.9824 4.13147 9.28427 2.90235 12.074 2.90235H13.0039V0.108887H11.5161C7.46165 0.108887 4.85791 2.30641 4.85791 6.36624V11.3572C4.85791 13.4058 4.00239 14.2997 2.58893 14.2997H0.840705V17.0559Z" fill="#333F66"/>
</svg>
