<svg width="60" height="60" viewBox="0 0 60 60" fill="none" xmlns="http://www.w3.org/2000/svg">
<rect width="60" height="60" rx="13" fill="#0A0619"/>
<path d="M20.6169 35.3849C18.5155 37.7644 17.5849 40.8506 17.2246 44.4864C20.755 43.6831 23.7991 42.5175 25.8224 40.0957L20.6229 35.3849H20.6169Z" fill="#9544B5"/>
<path d="M36.1254 38.4347C36.0113 37.5227 36.0413 36.5926 35.9453 35.6746C35.8792 35.0163 36.0233 34.5332 36.5216 34.044C38.7912 31.8094 40.7545 29.3392 42.1475 26.4463C43.9967 22.6112 44.9033 18.6191 44.2129 14.0714C40.2862 14.2103 34.7685 16.0886 32.1447 17.9306C29.8631 19.5371 27.8097 21.4758 26.0265 23.8191C25.3901 24.6586 24.7657 25.1237 23.6189 25.1599C22.8624 25.1841 22.5862 25.2505 21.4874 25.2626C20.6168 25.2686 20.2086 25.6733 19.8423 26.3255C18.8757 28.0468 17.891 29.7559 16.9243 31.4712C16.5221 32.1838 16.1498 32.9085 15.6875 33.7843C17.4827 33.6212 19.0318 33.4642 20.5868 33.3555C20.875 33.3374 21.2473 33.4038 21.4514 33.585C23.5168 35.4089 25.5702 37.257 27.5936 39.1292C27.8698 39.3829 28.1159 39.7875 28.164 40.1559C28.3801 41.7383 28.5242 43.3327 28.6923 44.9211C28.6383 44.9392 28.7824 44.9271 28.8845 44.8546C31.088 43.2059 33.2734 41.545 35.4829 39.9083C35.9993 39.5218 36.2094 39.099 36.1254 38.4407V38.4347ZM32.607 27.3824C31.136 26.0719 31.0039 23.8191 32.3008 22.3395C33.5977 20.8598 35.8432 20.7269 37.3142 22.0314C38.7852 23.342 38.9173 25.5947 37.6204 27.0744C36.3235 28.5541 34.078 28.687 32.607 27.3824Z" fill="#9544B5"/>
</svg>
