<svg width="159" height="30" viewBox="0 0 159 30" fill="none" xmlns="http://www.w3.org/2000/svg">
<path d="M26.044 15L7.26099 25.5M26.044 15L7.19324 4.53828M26.044 15V8L13.522 1L7.19324 4.53828M26.044 15L26.044 22L13.522 29L7.26099 25.5M7.26099 25.5L7.19324 4.53828M7.26099 25.5L1 22L1 8L7.19324 4.53828" stroke="url(#paint0_linear_1469_642)" stroke-width="1.6" stroke-linejoin="round"/>
<path d="M47.371 25.4223C51.1377 25.4223 53.7149 23.3098 53.7149 19.0848V18.7273H51.5672V19.0848C51.5672 22.0423 49.8821 23.4073 47.371 23.4073C44.8268 23.4073 43.1747 22.0098 43.1747 19.0848V10.9273H52.7898V8.9448H43.1747V3.2573H40.9609V19.0848C40.9609 23.3098 43.5712 25.4223 47.371 25.4223Z" fill="#F6F6F6"/>
<path d="M64.2791 25.4223C67.4511 25.4223 70.1605 23.8948 71.3169 21.0348V24.9998H73.3655V17.0698C73.3655 11.9998 69.764 8.5223 64.6095 8.5223C59.4551 8.5223 55.8205 12.0648 55.8205 17.0698C55.8205 22.2048 59.6864 25.4223 64.2791 25.4223ZM64.6095 23.4073C60.7107 23.4073 58.0673 20.6773 58.0673 16.9723C58.0673 13.2673 60.7107 10.5373 64.6095 10.5373C68.5084 10.5373 71.1517 13.2673 71.1517 16.9723C71.1517 20.6773 68.5084 23.4073 64.6095 23.4073Z" fill="#F6F6F6"/>
<path d="M85.3389 25.4223C90.5264 25.4223 94.1609 21.8473 94.1609 16.9073C94.1609 11.9673 90.4933 8.5223 85.7023 8.5223C82.5964 8.5223 80.0523 9.9523 78.8297 12.3898V1.9248H76.616V16.8748C76.616 22.0423 80.2835 25.4223 85.3389 25.4223ZM85.3719 23.4073C81.44 23.4073 78.8297 20.6773 78.8297 16.9723C78.8297 13.2673 81.44 10.5373 85.3719 10.5373C89.2708 10.5373 91.9141 13.2673 91.9141 16.9723C91.9141 20.6773 89.2708 23.4073 85.3719 23.4073Z" fill="#F6F6F6"/>
<path d="M96.7505 24.9998H98.9643V16.6148C98.9643 12.6498 101.277 10.5373 104.813 10.5373C108.348 10.5373 110.661 12.6498 110.661 16.6148V24.9998H112.875V16.6148C112.875 11.2848 109.637 8.5223 104.813 8.5223C99.9886 8.5223 96.7505 11.2848 96.7505 16.6148V24.9998Z" fill="#F6F6F6"/>
<path d="M117.829 5.8248C118.787 5.8248 119.514 5.1098 119.514 4.1673C119.514 3.22481 118.787 2.5098 117.829 2.5098C116.871 2.5098 116.144 3.22481 116.144 4.1673C116.144 5.1098 116.871 5.8248 117.829 5.8248ZM116.739 24.9998H118.952V8.9448H116.739V24.9998Z" fill="#F6F6F6"/>
<path d="M122.79 24.9998H125.004V16.6148C125.004 12.6498 127.317 10.5373 130.852 10.5373C134.388 10.5373 136.7 12.6498 136.7 16.6148V24.9998H138.914V16.6148C138.914 11.2848 135.676 8.5223 130.852 8.5223C126.028 8.5223 122.79 11.2848 122.79 16.6148V24.9998Z" fill="#F6F6F6"/>
<path d="M150.278 25.4223C154.078 25.4223 157.052 23.4723 158.307 20.5148H155.895C154.838 22.3673 152.856 23.4073 150.278 23.4073C146.611 23.4073 144.067 21.0348 143.769 17.6873H159.001V16.9723C159.001 12.0973 155.433 8.5223 150.278 8.5223C145.124 8.5223 141.489 12.0973 141.489 16.9723C141.489 21.8473 145.124 25.4223 150.278 25.4223ZM143.835 15.7373C144.331 12.5848 146.875 10.5373 150.278 10.5373C153.583 10.5373 156.16 12.4873 156.688 15.7373H143.835Z" fill="#F6F6F6"/>
<defs>
<linearGradient id="paint0_linear_1469_642" x1="28.2555" y1="24.73" x2="1.78884" y2="0.150597" gradientUnits="userSpaceOnUse">
<stop stop-color="#4BA1FC"/>
<stop offset="1" stop-color="#EC2AED"/>
</linearGradient>
</defs>
</svg>
