<svg width="13" height="13" viewBox="0 0 13 13" fill="none" xmlns="http://www.w3.org/2000/svg">
<path d="M9.47122 3.96026C12.1034 3.96026 12.5881 5.69464 12.5881 7.94614V12.5485L9.98887 12.549L9.98869 8.3522C9.98518 7.40031 9.91568 6.2515 8.63619 6.2515C7.28351 6.2515 7.07645 7.30771 7.07645 8.4V12.5485H4.47776V4.17046H6.97344V5.31294H7.01004C7.35671 4.65464 8.20586 3.96026 9.47122 3.96026ZM2.84795 4.17098V12.549H0.246121V4.17098H2.84795ZM1.54599 0C2.37736 0 3.0524 0.675033 3.05292 1.50693C3.05292 2.33882 2.37789 3.02797 1.54599 3.02797C0.714095 3.02797 0.0390625 2.33882 0.0390625 1.50693C0.0390625 0.675033 0.714095 0 1.54599 0Z" fill="#FFF"/>
</svg>
