<svg width="20" height="28" viewBox="0 0 20 28" fill="none" xmlns="http://www.w3.org/2000/svg">
<path fill-rule="evenodd" clip-rule="evenodd" d="M2.25957 8.51169C2.25957 4.07983 5.79228 0.336182 9.97485 0.336182C14.1596 0.336182 17.6923 4.07983 17.6944 8.51169V10.9344H18.4221C19.2637 10.9344 19.9476 11.6163 19.9476 12.46V26.365C19.9476 27.2066 19.2658 27.8906 18.4221 27.8906H1.52558C0.683956 27.8906 0 27.2087 0 26.365V12.46C0 11.6184 0.681825 10.9344 1.52558 10.9344H2.25957V8.51169ZM4.87182 10.9344H15.0822V8.51169C15.0822 5.18566 12.4422 2.95056 9.97698 2.95056C7.51176 2.95056 4.87182 5.18566 4.87182 8.51169V10.9344ZM11.1883 22.4104V19.7193C11.9106 19.2996 12.3964 18.5219 12.3964 17.627C12.3964 16.2889 11.314 15.2065 9.97596 15.2065C8.63787 15.2065 7.55548 16.2868 7.55548 17.627C7.55548 18.5219 8.04128 19.2996 8.76359 19.7193V22.4104C8.76359 23.0794 9.30691 23.6228 9.97596 23.6228C10.645 23.6228 11.1883 23.0794 11.1883 22.4104Z" fill="#FEB240"/>
</svg>
