<svg width="60" height="60" viewBox="0 0 60 60" fill="none" xmlns="http://www.w3.org/2000/svg">
<rect width="60" height="60" rx="13" fill="#0A0619"/>
<path fill-rule="evenodd" clip-rule="evenodd" d="M41.8751 25.043H37.5527C36.9277 25.043 36.4277 25.5043 36.4277 26.0742V41.6578C36.4277 42.2277 36.9277 42.689 37.5527 42.689H41.8751C42.5001 42.689 43.0001 42.2277 43.0001 41.6578V26.0742C43.0001 25.5043 42.4935 25.043 41.8751 25.043ZM32.6645 29.317H28.3421C27.7171 29.317 27.2171 29.8055 27.2171 30.416V41.5831C27.2171 42.1937 27.7171 42.6821 28.3421 42.6821H32.6645C33.2895 42.6821 33.7895 42.1937 33.7895 41.5831V30.416C33.7895 29.8055 33.2829 29.317 32.6645 29.317ZM19.125 31.8271H23.4474C24.0658 31.8271 24.5724 32.3698 24.5724 33.0483V41.4609C24.5724 42.1393 24.0724 42.682 23.4474 42.682H19.125C18.5 42.682 18 42.1393 18 41.4609V33.0483C18 32.3698 18.5 31.8271 19.125 31.8271Z" fill="#9544B5"/>
<path d="M39.2379 11.5896L29.9879 13.2925C29.6786 13.3264 29.455 13.7538 29.83 14.0727L32.5471 16.3929C26.8891 23.5029 18.0996 25.0565 18.0996 25.0565C25.8431 27.1597 33.0602 24.2967 36.6655 19.8597L39.409 22.18C39.7577 22.4785 40.1063 22.2275 40.0998 21.834L39.8563 12.1324C39.8498 11.7592 39.6129 11.515 39.2313 11.5828L39.2379 11.5896Z" fill="#9544B5"/>
</svg>
