<svg width="36" height="39" viewBox="0 0 36 39" fill="none" xmlns="http://www.w3.org/2000/svg">
<path d="M1.68796e-05 3.10442V26.757C1.68796e-05 27.5751 0.322909 28.3596 0.897674 28.9381C1.47244 29.5166 2.25212 29.8417 3.06496 29.8417H7.15785L8.63641 37.0655C8.6071 37.2888 8.65477 37.5153 8.77124 37.7076C8.8877 37.8998 9.06601 38.0462 9.2766 38.1223C9.4872 38.1983 9.71717 38.1994 9.92851 38.1255C10.1398 38.0516 10.3198 37.9071 10.4382 37.716L20.4355 29.8318H32.7634C33.1659 29.8318 33.5644 29.752 33.9362 29.597C34.3081 29.442 34.6459 29.2148 34.9305 28.9283C35.2151 28.6419 35.4408 28.3018 35.5948 27.9275C35.7488 27.5533 35.8281 27.1522 35.8281 26.7471V3.09456C35.8281 2.27554 35.5054 1.48991 34.9309 0.909853C34.3565 0.329796 33.5772 0.00260834 32.7634 0H3.02575C2.21713 0.0129568 1.44607 0.345987 0.879745 0.927056C0.313416 1.50812 -0.00266114 2.29046 1.68796e-05 3.10442Z" fill="#151515"/>
<path d="M19.2865 13.8457L24.7142 7.67236H23.4284L18.7136 13.0315L14.9506 7.67236H10.6094L16.301 15.7771L10.6094 22.25H11.8951L16.8709 16.5893L20.8458 22.25H25.187M12.3592 8.62106H14.3344L23.4275 21.3479H21.4517" fill="white"/>
</svg>
