<svg width="18" height="29" viewBox="0 0 18 29" fill="none" xmlns="http://www.w3.org/2000/svg">
<path d="M8.65713 11.6399C11.4579 11.6399 13.7283 9.12282 13.7283 6.01783C13.7283 2.91284 11.4579 0.395752 8.65713 0.395752C5.85639 0.395752 3.58594 2.91284 3.58594 6.01783C3.58594 9.12282 5.85639 11.6399 8.65713 11.6399Z" fill="#FF5A83"/>
<path d="M13.8538 13.1931H3.74992C3.24459 13.1914 2.74415 13.2876 2.27886 13.4759C1.81358 13.6642 1.3931 13.9408 1.04289 14.2888C0.692686 14.6368 0.420014 15.0491 0.241351 15.5006C0.0626872 15.9521 -0.0182469 16.4332 0.00344434 16.9155C0.295335 22.5314 2.97686 26.248 7.72409 28.3222C8.06092 28.469 8.42633 28.5467 8.79658 28.5499C9.16683 28.553 9.53366 28.4815 9.87319 28.3404C14.7134 26.3367 17.1865 22.4489 17.5104 16.8574C17.5352 16.3844 17.459 15.9116 17.2863 15.4677C17.1137 15.0237 16.8482 14.6179 16.5061 14.275C16.164 13.9322 15.7524 13.6595 15.2964 13.4735C14.8405 13.2875 14.3496 13.1921 13.8538 13.1931Z" fill="#FF5A83"/>
</svg>
