<svg width="60" height="60" viewBox="0 0 60 60" fill="none" xmlns="http://www.w3.org/2000/svg">
<rect width="60" height="60" rx="13" fill="#0A0619"/>
<path d="M39.9538 34.0048C39.6906 34.9749 39.5297 36.052 38.8279 36.5655C37.775 37.3288 35.8887 36.5655 34.6531 36.965C33.7539 37.2574 32.9423 38.2204 32.0723 38.734L36.1519 47.9285L39.0911 43.4347L44.9254 44.5118L39.9611 34.0048H39.9538Z" fill="#9544B5"/>
<path d="M18.9638 33.8817C19.227 34.8518 19.3879 35.9289 20.0898 36.4425C21.1426 37.2057 23.0289 36.4425 24.2645 36.8419C25.1638 37.1344 25.9753 38.0974 26.8454 38.6109L22.7657 47.8055L19.8266 43.3116L13.9922 44.3887L18.9565 33.8817H18.9638Z" fill="#9544B5"/>
<path d="M41.3152 24.7178C41.3006 23.4338 42.6312 21.9002 42.2145 20.6733C41.7977 19.4536 39.7945 18.9614 39.0195 17.9271C38.2445 16.8928 38.4053 14.867 37.3379 14.118C36.2704 13.3691 34.3695 14.1894 33.1193 13.7971C32.0299 13.4547 31.0648 12.0994 29.9608 11.7713C29.8 11.7213 29.6245 11.6857 29.4564 11.6857C28.1476 11.6857 27.0948 13.4261 25.8592 13.8327C24.7772 14.1822 23.2126 13.6116 22.1232 13.9825C21.9696 14.0324 21.8234 14.1109 21.6918 14.2108C20.639 14.974 20.7998 16.9855 20.0395 18.027C19.2791 19.0684 17.3051 19.5392 16.9176 20.7661C16.5228 21.993 17.8827 23.5337 17.8973 24.8177C17.9119 26.1016 16.5886 27.6423 17.0053 28.8621C17.422 30.0819 19.4326 30.5455 20.2076 31.5798C20.9899 32.6141 20.8291 34.6114 21.8965 35.3603C22.964 36.1093 24.843 35.3461 26.0932 35.7384C27.3434 36.1307 28.4255 37.8212 29.7269 37.8141C31.0356 37.8141 32.1103 36.1093 33.3459 35.7027C34.5815 35.2961 36.4752 36.0594 37.5207 35.3033C38.5735 34.54 38.4126 32.5285 39.173 31.4871C39.9334 30.4456 41.944 29.9535 42.3388 28.7266C42.7336 27.4997 41.3225 26.0089 41.3079 24.7249L41.3152 24.7178ZM29.7196 32.6355C25.15 32.6355 21.4505 29.0262 21.4505 24.568C21.4505 20.1098 25.15 16.5005 29.7196 16.5005C34.2891 16.5005 37.9886 20.1098 37.9886 24.568C37.9886 29.0262 34.2891 32.6355 29.7196 32.6355Z" fill="#9544B5"/>
<path d="M28.9334 28.4459H28.9123C28.6478 28.4459 28.4044 28.3285 28.2246 28.1257L25.3679 24.8699C25.0294 24.475 25.0611 23.8879 25.4526 23.5356C25.844 23.1941 26.4365 23.2261 26.7751 23.621L28.9546 26.0975L33.7368 21.0378C34.0965 20.6642 34.689 20.6429 35.0593 21.0058C35.4296 21.3687 35.4507 21.9665 35.091 22.3401L29.6 28.147C29.4201 28.3392 29.1768 28.4352 28.9228 28.4352L28.9334 28.4459Z" fill="#9544B5"/>
</svg>
