<svg width="1296" height="1120" viewBox="0 0 1296 1120" fill="none" xmlns="http://www.w3.org/2000/svg">
<g opacity="0.14" filter="url(#filter0_f_352_1041)">
<ellipse cx="248" cy="160" rx="248" ry="160" transform="matrix(-1 0 0 1 896 400)" fill="url(#paint0_linear_352_1041)"/>
</g>
<path d="M754.898 620.051C758.966 617.701 761 614.601 761 611.5C761 608.399 758.966 605.299 754.898 602.949L660.791 548.53C652.655 543.823 639.345 543.823 631.209 548.53L537.102 602.949C533.034 605.299 531 608.399 531 611.5C531 614.601 533.034 617.701 537.102 620.051L631.209 674.47C639.345 679.177 652.655 679.177 660.791 674.47L754.898 620.051Z" fill="#240924" fill-opacity="0.62"/>
<path d="M754.898 652.051C758.966 649.701 761 646.601 761 643.5C761 640.399 758.966 637.299 754.898 634.949L660.791 580.53C652.655 575.823 639.345 575.823 631.209 580.53L537.102 634.949C533.034 637.299 531 640.399 531 643.5C531 646.601 533.034 649.701 537.102 652.051L631.209 706.47C639.345 711.177 652.655 711.177 660.791 706.47L754.898 652.051Z" fill="#240924" fill-opacity="0.26"/>
<path d="M764.25 558.127V572.511C764.25 576.309 762.243 579.83 758.975 581.765L662.165 639.05C651.518 645.347 638.311 645.419 627.592 639.254L529.653 582.81C526.541 581.019 524.63 577.703 524.63 574.122V556.168L764.25 558.127Z" fill="#6B40AE"/>
<path opacity="0.8" d="M757.893 567.008C762.123 564.569 764.25 561.336 764.25 558.116C764.25 554.895 762.135 551.674 757.893 549.223L659.918 492.659C651.446 487.768 637.59 487.768 629.118 492.659L531.131 549.223C526.889 551.662 524.774 554.895 524.774 558.116C524.774 561.336 526.889 564.557 531.131 567.008L629.118 623.572C637.59 628.463 651.446 628.463 659.918 623.572L757.893 567.008Z" fill="url(#paint1_linear_352_1041)"/>
<g opacity="0.79">
<path d="M580.001 546.53L591.886 553.392L608.818 549.066L630.449 561.552L622.698 571.177L634.282 577.871L666.969 534.669L655.42 528L580.001 546.53ZM621.388 545.857L648.787 538.647L636.145 554.389L621.388 545.869V545.857Z" fill="white" fill-opacity="0.6"/>
<path d="M649.923 587.349L703.688 556.309L692.764 550L639 581.04L649.923 587.349Z" fill="white" fill-opacity="0.6"/>
</g>
<path d="M679.793 622.346C679.793 622.971 679.456 623.536 678.928 623.848L668.918 629.629C667.764 630.302 666.31 629.46 666.31 628.127C666.31 627.502 666.646 626.937 667.175 626.624L677.185 620.844C678.339 620.171 679.793 621.012 679.793 622.346Z" fill="#2E1759"/>
<path d="M692.615 614.944C692.615 615.569 692.279 616.134 691.75 616.446L688.157 618.525C687.003 619.198 685.549 618.357 685.549 617.023C685.549 616.398 685.886 615.833 686.414 615.521L690.008 613.442C691.161 612.769 692.615 613.61 692.615 614.944Z" fill="#2E1759"/>
<path d="M734.002 591.042C734.002 591.667 733.665 592.231 733.137 592.544L723.127 598.324C721.973 598.997 720.519 598.156 720.519 596.822C720.519 596.197 720.855 595.632 721.384 595.32L731.394 589.54C732.548 588.867 734.002 589.708 734.002 591.042Z" fill="#2E1759"/>
<path d="M746.824 583.639C746.824 584.264 746.488 584.829 745.959 585.141L742.366 587.22C741.212 587.893 739.758 587.052 739.758 585.718C739.758 585.093 740.095 584.529 740.623 584.216L744.217 582.137C745.37 581.464 746.824 582.305 746.824 583.639Z" fill="#2E1759"/>
<path opacity="0.35" d="M746.788 565.181C750.585 562.982 752.496 560.086 752.496 557.202C752.496 554.318 750.597 551.41 746.788 549.223L658.799 498.415C651.192 494.028 638.743 494.028 631.148 498.415L543.171 549.211C539.362 551.41 537.463 554.306 537.463 557.19C537.463 560.074 539.362 562.982 543.171 565.169L631.148 615.965C638.755 620.352 651.204 620.352 658.811 615.965L746.788 565.181Z" stroke="#330544" stroke-width="1.5" stroke-miterlimit="10"/>
<g opacity="0.4">
<path d="M701.48 383L647.001 402.354L648.077 495.542L649.152 588.73L702.914 557.907L701.48 383Z" fill="url(#paint2_linear_352_1041)"/>
<path d="M654.834 326L581 364.709V546.067L656.984 527.429L654.834 326Z" fill="url(#paint3_linear_352_1041)"/>
<path d="M666.736 340.054L633.045 357.974L634.479 576.608L666.736 533.598V340.054Z" fill="url(#paint4_linear_352_1041)"/>
<path d="M651.621 400.655L640.152 394.921L639.435 534.703L640.152 582.73L651.621 589.182V400.655Z" fill="url(#paint5_linear_352_1041)"/>
<path d="M635.195 389.515L623.726 383.78L623.009 523.562L623.726 571.59L635.195 578.041V389.515Z" fill="url(#paint6_linear_352_1041)"/>
</g>
<path d="M734.055 445.202V455.873C734.055 458.69 732.566 461.302 730.141 462.737L658.325 505.233C650.427 509.904 640.63 509.958 632.678 505.385L560.024 463.513C557.715 462.185 556.298 459.724 556.298 457.068V443.749L734.055 445.202Z" fill="#6B40AE"/>
<path opacity="0.8" d="M729.339 451.791C732.477 449.981 734.055 447.583 734.055 445.194C734.055 442.805 732.486 440.416 729.339 438.597L656.658 396.636C650.374 393.008 640.095 393.008 633.81 396.636L561.121 438.597C557.974 440.407 556.405 442.805 556.405 445.194C556.405 447.583 557.974 449.972 561.121 451.791L633.81 493.752C640.095 497.38 650.374 497.38 656.658 493.752L729.339 451.791Z" fill="url(#paint7_linear_352_1041)"/>
<path d="M671.402 492.842C671.402 493.306 671.153 493.725 670.76 493.957L663.335 498.245C662.479 498.744 661.4 498.12 661.4 497.13C661.4 496.667 661.65 496.248 662.042 496.016L669.468 491.728C670.324 491.229 671.402 491.853 671.402 492.842Z" fill="#2E1759"/>
<path d="M680.914 487.351C680.914 487.814 680.664 488.233 680.272 488.465L677.607 490.007C676.751 490.507 675.672 489.883 675.672 488.893C675.672 488.429 675.922 488.01 676.314 487.779L678.98 486.236C679.835 485.737 680.914 486.361 680.914 487.351Z" fill="#2E1759"/>
<path d="M711.617 469.619C711.617 470.083 711.368 470.502 710.975 470.734L703.549 475.022C702.694 475.521 701.615 474.897 701.615 473.907C701.615 473.444 701.865 473.025 702.257 472.793L709.683 468.505C710.539 468.006 711.617 468.63 711.617 469.619Z" fill="#2E1759"/>
<path d="M721.129 464.128C721.129 464.592 720.879 465.011 720.487 465.242L717.822 466.785C716.966 467.284 715.887 466.66 715.887 465.67C715.887 465.207 716.137 464.788 716.529 464.556L719.194 463.014C720.05 462.515 721.129 463.139 721.129 464.128Z" fill="#2E1759"/>
<path opacity="0.35" d="M721.102 450.435C723.919 448.804 725.336 446.656 725.336 444.516C725.336 442.377 723.927 440.219 721.102 438.597L655.829 400.906C650.186 397.652 640.951 397.652 635.317 400.906L570.053 438.588C567.227 440.219 565.818 442.368 565.818 444.507C565.818 446.647 567.227 448.804 570.053 450.426L635.317 488.108C640.959 491.362 650.195 491.362 655.838 488.108L721.102 450.435Z" stroke="#06232E" stroke-width="1.5" stroke-miterlimit="10"/>
<ellipse cx="44" cy="21" rx="44" ry="21" transform="matrix(-1 0 0 1 690 425)" fill="#455CB7" fill-opacity="0.59"/>
<path d="M669.945 357.023L631.976 338.035C628.137 336.115 625.201 336.316 622.124 337.159L614.005 339.927C613.851 340.001 613.697 340.075 613.543 340.155H613.53C611.149 341.486 609.684 344.148 609.684 347.886V377.883C609.684 402.322 622.961 430.299 642.698 451.581C647.567 451.2 652.034 450.016 656.014 448.083L656.255 447.963C656.375 447.903 656.495 447.842 656.616 447.782L659.411 446.378C671.731 440.545 683.971 426.614 683.971 408.061V378.064C683.971 370.319 677.69 360.895 669.945 357.023Z" fill="url(#paint8_linear_352_1041)"/>
<path d="M642.698 451.581C662.435 450.036 675.711 435.342 675.711 410.903V380.906C675.711 373.161 669.431 363.738 661.686 359.865L623.716 340.877C615.972 337.005 609.691 340.142 609.691 347.886V377.883C609.691 402.322 622.967 430.299 642.704 451.581H642.698Z" fill="#F6F6FB"/>
<path opacity="0.3" d="M641.5 445.568C632.892 435.951 625.662 424.962 620.519 413.665C614.928 401.379 611.971 389.046 611.971 377.997V349.579C611.971 345.051 614.453 342.235 618.452 342.235C620.144 342.235 622.064 342.75 623.997 343.713L641.5 352.468V445.568Z" fill="url(#paint9_linear_352_1041)"/>
<path d="M630.94 339.252L631 350.522C631.04 357.678 636.324 365.938 642.811 368.975C649.292 372.011 654.522 368.68 654.482 361.524L654.422 350.254L630.94 339.252Z" fill="#5652CC"/>
<path d="M634.19 337.533L657.666 348.542L654.416 350.261L630.94 339.252L634.19 337.533Z" fill="#8686EA"/>
<path d="M654.415 350.261L654.475 361.531C654.495 365.089 653.211 367.697 651.124 369.055L654.174 367.463C656.381 366.145 657.752 363.484 657.732 359.818L657.672 348.549L654.422 350.268L654.415 350.261Z" fill="#362E94"/>
<path d="M644.102 329.012C639.521 326.865 635.829 329.22 635.855 334.276L635.889 340.817L637.808 341.713L637.775 335.172C637.755 331.293 640.597 329.48 644.115 331.126C647.633 332.771 650.509 337.272 650.529 341.151L650.563 347.693L652.482 348.589L652.449 342.048C652.422 336.991 648.683 331.159 644.102 329.006V329.012Z" fill="#5652CC"/>
<path d="M638.222 328.959C638.222 328.959 638.229 328.959 638.236 328.952H638.222V328.959Z" fill="#6B67E9"/>
<path d="M637.775 335.172L637.808 341.72L639.715 340.503L639.681 333.962C639.674 332.557 640.042 331.434 640.678 330.638C638.919 331.066 637.762 332.698 637.775 335.179V335.172Z" fill="#362E94"/>
<path d="M646.008 327.795C643.728 326.725 641.668 326.772 640.176 327.715L640.163 327.722C640.163 327.722 640.163 327.722 640.156 327.722L638.27 328.925C639.761 327.982 641.821 327.936 644.102 329.006C648.684 331.153 652.416 336.991 652.449 342.041L652.483 348.582L654.389 347.365L654.355 340.824C654.328 335.768 650.59 329.935 646.008 327.782V327.795Z" fill="url(#paint10_linear_352_1041)"/>
<path d="M660.195 406.629L622.494 391.32" stroke="black"/>
<path opacity="0.69" d="M640.702 361.347L640.683 361.344C640.376 361.361 640.114 361.23 639.948 360.998L637.222 357.146C636.897 356.683 637.041 355.94 637.553 355.481C638.065 355.028 638.743 355.037 639.07 355.493L641.148 358.433L647.573 351.82C648.052 351.325 648.739 351.271 649.115 351.69C649.484 352.114 649.398 352.852 648.919 353.347L641.544 360.939C641.308 361.186 641.003 361.33 640.708 361.348L640.702 361.347Z" fill="white"/>
<g clip-path="url(#clip0_352_1041)">
<path d="M629.083 374.819L632.693 387.895L630.904 387.167L630.084 384.179L625.792 382.434L624.912 384.725L623.152 384.012L627.081 374L629.083 374.819ZM626.398 380.887L629.523 382.161L628.022 376.7L626.398 380.902V380.887Z" fill="#3D3D70"/>
<path d="M635.529 389.048L633.754 388.335L633.921 376.791L635.696 377.504L635.529 389.048Z" fill="#3D3D70"/>
<path d="M641.491 389.822C642.659 390.292 643.508 389.822 643.827 388.593L645.48 389.928C644.874 391.733 643.463 392.461 641.461 391.642C638.821 390.565 636.925 387.349 636.986 383.83C637.031 380.326 638.988 378.657 641.627 379.734C643.63 380.553 644.995 382.404 645.556 384.679H643.888C643.599 383.193 642.765 382.025 641.612 381.554C639.974 380.887 638.791 382.055 638.761 384.558C638.73 387.046 639.868 389.17 641.491 389.822Z" fill="#3D3D70"/>
<path d="M648.408 394.282L646.633 393.569L646.8 382.025L650.774 383.633C652.989 384.528 654.354 386.302 654.323 388.639C654.293 390.944 652.882 391.612 650.683 390.717L648.483 389.822L648.423 394.297L648.408 394.282ZM650.592 388.896C651.866 389.412 652.549 389.048 652.564 387.926C652.564 386.788 651.912 385.878 650.637 385.362L648.529 384.512L648.483 388.047L650.592 388.896Z" fill="#3D3D70"/>
<path d="M659.404 387.137L663.014 400.213L661.224 399.485L660.405 396.496L656.112 394.752L655.232 397.043L653.473 396.33L657.401 386.302L659.404 387.122V387.137ZM656.719 393.205L659.844 394.479L658.327 389.018L656.704 393.22L656.719 393.205Z" fill="#3D3D70"/>
<path d="M624.381 406.599C625.063 408.132 626.08 409.284 627.217 409.74C628.34 410.195 629.189 409.937 629.204 408.829C629.22 407.661 628.188 407.07 626.717 406.053C625.23 405.022 623.638 403.869 623.668 401.609C623.698 399.47 625.291 398.742 627.293 399.561C628.992 400.259 630.312 401.73 630.964 403.201L629.644 403.975C629.098 402.746 628.385 401.76 627.217 401.29C626.156 400.85 625.412 401.184 625.397 402.109C625.397 403.126 626.14 403.641 627.475 404.536C629.068 405.613 630.994 406.827 630.949 409.33C630.919 411.605 629.189 412.303 627.142 411.469C625.443 410.771 623.774 409.148 623.016 407.343L624.396 406.584L624.381 406.599Z" fill="#3D3D70"/>
<path d="M636.41 403.262C639.095 404.354 640.991 407.585 640.946 411.089C640.9 414.594 638.928 416.262 636.243 415.17C633.558 414.078 631.662 410.847 631.708 407.343C631.753 403.838 633.725 402.185 636.41 403.262ZM636.38 405.082C634.711 404.4 633.513 405.553 633.467 408.056C633.437 410.559 634.59 412.667 636.258 413.35C637.927 414.032 639.125 412.879 639.171 410.377C639.201 407.874 638.048 405.765 636.38 405.082Z" fill="#3D3D70"/>
<path d="M646.375 417.461C647.543 417.931 648.392 417.461 648.711 416.232L650.364 417.567C649.757 419.372 648.347 420.1 646.344 419.281C643.705 418.204 641.809 414.988 641.854 411.469C641.9 407.965 643.857 406.296 646.496 407.373C648.498 408.192 649.863 410.043 650.425 412.318H648.756C648.468 410.832 647.634 409.664 646.481 409.193C644.843 408.526 643.659 409.694 643.629 412.197C643.599 414.685 644.736 416.808 646.359 417.461H646.375Z" fill="#3D3D70"/>
<path d="M656.492 419.145C657.872 418.401 659.101 417.764 659.116 416.308C659.131 415.11 658.509 414.002 657.463 413.577C656.431 413.153 655.733 413.835 655.718 414.973C655.718 415.337 655.764 415.731 655.87 416.141L654.232 415.474C654.095 414.958 654.065 414.624 654.065 414.199C654.095 412.03 655.657 411.09 657.538 411.848C659.616 412.698 660.921 414.73 660.891 416.9C660.86 418.947 659.51 419.797 658.1 420.525L656.416 421.375L660.921 423.21L660.891 425.015L653.943 422.194L653.974 420.525L656.492 419.16V419.145Z" fill="#3D3D70"/>
</g>
<path d="M733.218 440.248L736 367L660.968 409.875C653.322 414.244 643.943 414.268 636.275 409.94L560.209 367L557.283 442.433C557.109 446.912 559.446 451.115 563.343 453.33L639.57 496.668C643.209 498.737 647.664 498.76 651.325 496.728L722.94 456.975C729.055 453.58 732.953 447.237 733.218 440.248Z" fill="url(#paint11_linear_352_1041)"/>
<path d="M766.159 553.396L770 470L663.674 530.376C656.059 534.7 646.736 534.725 639.098 530.44L531.357 470L527.349 554.796C527.135 559.321 529.488 563.581 533.433 565.81L641.215 626.705C644.84 628.753 649.268 628.775 652.914 626.764L755.84 569.989C761.931 566.629 765.838 560.345 766.159 553.396Z" fill="url(#paint12_linear_352_1041)"/>
<defs>
<filter id="filter0_f_352_1041" x="0" y="0" width="1296" height="1120" filterUnits="userSpaceOnUse" color-interpolation-filters="sRGB">
<feFlood flood-opacity="0" result="BackgroundImageFix"/>
<feBlend mode="normal" in="SourceGraphic" in2="BackgroundImageFix" result="shape"/>
<feGaussianBlur stdDeviation="200" result="effect1_foregroundBlur_352_1041"/>
</filter>
<linearGradient id="paint0_linear_352_1041" x1="539.799" y1="271.2" x2="267.868" y2="-166.441" gradientUnits="userSpaceOnUse">
<stop stop-color="#4BA1FC"/>
<stop offset="1" stop-color="#EC2AED"/>
</linearGradient>
<linearGradient id="paint1_linear_352_1041" x1="764.25" y1="558.128" x2="524.774" y2="558.128" gradientUnits="userSpaceOnUse">
<stop stop-color="#4BA1FC"/>
<stop offset="1" stop-color="#EC2AED"/>
</linearGradient>
<linearGradient id="paint2_linear_352_1041" x1="664.205" y1="589.447" x2="663.488" y2="423.143" gradientUnits="userSpaceOnUse">
<stop stop-color="white" stop-opacity="0.56"/>
<stop offset="1" stop-color="white" stop-opacity="0"/>
</linearGradient>
<linearGradient id="paint3_linear_352_1041" x1="597.487" y1="545.35" x2="597.487" y2="399.834" gradientUnits="userSpaceOnUse">
<stop stop-color="white" stop-opacity="0.56"/>
<stop offset="1" stop-color="white" stop-opacity="0"/>
</linearGradient>
<linearGradient id="paint4_linear_352_1041" x1="642.364" y1="558.687" x2="643.081" y2="401.701" gradientUnits="userSpaceOnUse">
<stop stop-color="white"/>
<stop offset="1" stop-color="white" stop-opacity="0"/>
</linearGradient>
<linearGradient id="paint5_linear_352_1041" x1="641.585" y1="585.598" x2="638.718" y2="414.275" gradientUnits="userSpaceOnUse">
<stop stop-color="white" stop-opacity="0.37"/>
<stop offset="1" stop-color="white" stop-opacity="0"/>
</linearGradient>
<linearGradient id="paint6_linear_352_1041" x1="625.16" y1="574.457" x2="622.292" y2="403.134" gradientUnits="userSpaceOnUse">
<stop stop-color="white" stop-opacity="0.37"/>
<stop offset="1" stop-color="white" stop-opacity="0"/>
</linearGradient>
<linearGradient id="paint7_linear_352_1041" x1="734.055" y1="445.203" x2="556.405" y2="445.203" gradientUnits="userSpaceOnUse">
<stop stop-color="#4BA1FC"/>
<stop offset="1" stop-color="#EC2AED"/>
</linearGradient>
<linearGradient id="paint8_linear_352_1041" x1="646.831" y1="445.341" x2="646.831" y2="348.321" gradientUnits="userSpaceOnUse">
<stop offset="0.6" stop-color="#CED3F8"/>
<stop offset="1" stop-color="#BBC0E6"/>
</linearGradient>
<linearGradient id="paint9_linear_352_1041" x1="612.827" y1="393.902" x2="640.289" y2="393.902" gradientUnits="userSpaceOnUse">
<stop offset="0.6" stop-color="#CED3F8"/>
<stop offset="1" stop-color="#BBC0E6"/>
</linearGradient>
<linearGradient id="paint10_linear_352_1041" x1="644.626" y1="326.401" x2="658.571" y2="347.243" gradientUnits="userSpaceOnUse">
<stop offset="0.09" stop-color="#807DFB"/>
<stop offset="0.28" stop-color="#726EE7"/>
<stop offset="0.66" stop-color="#4E47B5"/>
<stop offset="0.89" stop-color="#362E94"/>
</linearGradient>
<linearGradient id="paint11_linear_352_1041" x1="641.887" y1="395.632" x2="646.594" y2="499.96" gradientUnits="userSpaceOnUse">
<stop stop-color="#E531EE" stop-opacity="0"/>
<stop offset="1" stop-color="#EC2AED" stop-opacity="0.63"/>
</linearGradient>
<linearGradient id="paint12_linear_352_1041" x1="648.5" y1="510.694" x2="648.627" y2="629.947" gradientUnits="userSpaceOnUse">
<stop stop-color="#E531EE" stop-opacity="0"/>
<stop offset="1" stop-color="#EC2AED" stop-opacity="0.51"/>
</linearGradient>
<clipPath id="clip0_352_1041">
<rect width="40" height="51" fill="white" transform="translate(623 374)"/>
</clipPath>
</defs>
</svg>
