<svg width="1356" height="1186" viewBox="0 0 1356 1186" fill="none" xmlns="http://www.w3.org/2000/svg">
<g opacity="0.14" filter="url(#filter0_f_352_1195)">
<ellipse cx="678" cy="592.71" rx="278" ry="192.71" fill="url(#paint0_linear_352_1195)"/>
</g>
<path d="M933.545 626.736C935.601 625.533 936.635 623.938 936.635 622.349C936.635 620.76 935.607 619.172 933.545 617.962L885.918 590.056C881.8 587.643 875.066 587.643 870.948 590.056L823.321 617.962C821.259 619.166 820.231 620.76 820.231 622.349C820.231 623.938 821.259 625.527 823.321 626.736L870.948 654.642C875.066 657.055 881.8 657.055 885.918 654.642L933.545 626.736Z" fill="#240924" fill-opacity="0.41"/>
<path d="M933.545 604.794C935.601 603.622 936.635 602.07 936.635 600.523C936.635 598.977 935.607 597.431 933.545 596.253L885.918 569.092C881.8 566.743 875.066 566.743 870.948 569.092L823.321 596.253C821.259 597.425 820.231 598.977 820.231 600.523C820.231 602.07 821.259 603.616 823.321 604.794L870.948 631.955C875.066 634.304 881.8 634.304 885.918 631.955L933.545 604.794Z" fill="#240924" fill-opacity="0.42"/>
<path d="M719.836 756.664C721.892 755.493 722.926 753.94 722.926 752.394C722.926 750.847 721.898 749.301 719.836 748.124L672.209 720.962C668.091 718.614 661.357 718.614 657.239 720.962L609.612 748.124C607.55 749.295 606.522 750.847 606.522 752.394C606.522 753.94 607.55 755.487 609.612 756.664L657.239 783.826C661.357 786.174 668.091 786.174 672.209 783.826L719.836 756.664Z" fill="#240924" fill-opacity="0.41"/>
<path d="M719.836 735.865C721.892 734.661 722.926 733.067 722.926 731.478C722.926 729.889 721.898 728.3 719.836 727.091L672.209 699.185C668.091 696.772 661.357 696.772 657.239 699.185L609.612 727.091C607.55 728.294 606.522 729.889 606.522 731.478C606.522 733.067 607.55 734.655 609.612 735.865L657.239 763.771C661.357 766.184 668.091 766.184 672.209 763.771L719.836 735.865Z" fill="#240924" fill-opacity="0.42"/>
<path d="M519.768 491.631C521.824 490.444 522.857 488.87 522.857 487.303C522.857 485.735 521.829 484.167 519.768 482.974L472.141 455.44C468.023 453.06 461.288 453.06 457.17 455.44L409.544 482.974C407.482 484.162 406.454 485.735 406.454 487.303C406.454 488.87 407.482 490.438 409.544 491.631L457.17 519.165C461.288 521.546 468.023 521.546 472.141 519.165L519.768 491.631Z" fill="#240924" fill-opacity="0.41"/>
<path d="M519.768 472.021C521.824 470.849 522.857 469.297 522.857 467.751C522.857 466.204 521.829 464.658 519.768 463.48L472.141 436.319C468.023 433.97 461.288 433.97 457.17 436.319L409.544 463.48C407.482 464.652 406.454 466.204 406.454 467.751C406.454 469.297 407.482 470.844 409.544 472.021L457.17 499.182C461.288 501.531 468.023 501.531 472.141 499.182L519.768 472.021Z" fill="#240924" fill-opacity="0.42"/>
<path d="M930.818 585.696C932.874 584.525 933.908 582.973 933.908 581.426C933.908 579.88 932.88 578.333 930.818 577.156L883.191 549.994C879.074 547.646 872.339 547.646 868.221 549.994L820.594 577.156C818.533 578.327 817.505 579.88 817.505 581.426C817.505 582.973 818.533 584.519 820.594 585.696L868.221 612.858C872.339 615.206 879.074 615.206 883.191 612.858L930.818 585.696Z" stroke="#AD5DF0" stroke-miterlimit="10"/>
<path d="M719.836 716.254C721.892 715.067 722.926 713.493 722.926 711.925C722.926 710.358 721.898 708.79 719.836 707.597L672.209 680.063C668.091 677.682 661.357 677.682 657.239 680.063L609.612 707.597C607.55 708.784 606.522 710.358 606.522 711.925C606.522 713.493 607.55 715.061 609.612 716.254L657.239 743.788C661.357 746.169 668.091 746.169 672.209 743.788L719.836 716.254Z" stroke="#AD5DF0" stroke-miterlimit="10"/>
<path d="M519.767 451.624C521.824 450.436 522.857 448.863 522.857 447.295C522.857 445.727 521.829 444.16 519.767 442.966L472.144 415.427C468.026 413.046 461.291 413.046 457.173 415.427L409.544 442.96C407.482 444.148 406.454 445.721 406.454 447.289C406.454 448.857 407.482 450.424 409.544 451.618L457.173 479.151C461.291 481.532 468.026 481.532 472.144 479.151L519.767 451.624Z" stroke="#AD5DF0" stroke-miterlimit="10"/>
<path d="M590.415 529.133L491.135 468.038" stroke="#762EB3" stroke-miterlimit="10"/>
<path d="M856.924 570.971C860.984 568.542 867.588 568.542 871.647 570.971L874.528 572.698L876.387 571.587C877.927 570.665 880.609 570.781 882.387 571.845L896.064 580.032C897.837 581.096 898.03 582.703 896.496 583.625L880.701 593.081C879.161 594.003 876.479 593.887 874.701 592.823L861.024 584.636C859.566 583.761 859.18 582.523 859.937 581.596L856.924 579.789C852.865 577.361 852.865 573.404 856.924 570.976V570.971ZM875.443 583.719C875.605 583.819 875.778 583.904 875.961 583.983C876.418 584.172 876.936 584.12 877.363 583.867L878.206 583.372L880.279 584.615V584.604L882.179 585.742C882.342 585.837 882.535 585.837 882.697 585.742L883.805 585.078C883.998 584.963 883.998 584.668 883.805 584.552L880.03 582.292L880.579 581.97C881.087 581.67 881.092 580.911 880.584 580.616C880.264 580.432 879.868 580.269 879.4 580.148C878.476 579.905 877.495 579.905 876.57 580.158C874.091 580.848 873.71 582.666 875.437 583.719H875.443ZM859.099 578.483L861.979 580.211L872.349 574.005L869.468 572.277C866.608 570.565 861.959 570.565 859.099 572.277C856.238 573.989 856.238 576.776 859.099 578.483Z" fill="url(#paint1_linear_352_1195)"/>
<path d="M649.846 716.251C650.424 715.906 651.066 715.626 651.747 715.402C648.847 713.389 648.989 710.349 652.178 708.438C653.231 707.807 654.495 707.375 655.837 707.141C654.049 704.839 654.744 702.012 657.919 700.111C661.979 697.676 668.562 697.676 672.628 700.111C673.368 700.553 673.97 701.046 674.44 701.57C674.676 701.382 674.935 701.199 675.224 701.026C678.437 699.099 683.654 699.099 686.867 701.026C690.081 702.953 690.081 706.074 686.867 708.001L661.475 723.216C658.266 725.138 653.059 725.138 649.851 723.216C646.643 721.294 646.643 718.173 649.851 716.251H649.846Z" fill="url(#paint2_linear_352_1195)"/>
<path fill-rule="evenodd" clip-rule="evenodd" d="M461.5 432.759C461.083 432.698 460.639 432.776 460.324 432.961L444.119 442.662C443.798 442.852 443.669 443.132 443.776 443.384L449.082 456.285C449.189 456.542 449.515 456.738 449.937 456.8L471.448 460C471.864 460.062 472.309 459.983 472.624 459.799L488.829 450.097C489.15 449.907 489.279 449.627 489.172 449.376L483.866 436.474C483.759 436.217 483.433 436.021 483.011 435.959L472.371 434.376L461.5 432.759ZM461.505 434.303L469.63 435.512L448.305 448.206L446.325 443.395L461.505 434.303ZM450.027 449.219L471.347 436.53L478.194 453.409L450.021 449.219H450.027ZM480.575 452.995L473.727 436.122L481.666 437.302L486.635 449.37L480.58 452.995H480.575ZM477.485 454.847L449.312 450.657L451.293 455.463L471.448 458.461L477.485 454.847Z" fill="url(#paint3_linear_352_1195)"/>
<path d="M692.915 589.156L744.246 621.117L768.572 636.306C774.962 640.297 783.053 640.357 789.502 636.463L847.514 601.435" stroke="#762EB3" stroke-miterlimit="10"/>
<path d="M696.835 692.828L765.396 651.069C771.768 647.188 771.8 637.948 765.455 634.024L692.917 589.156" stroke="#762EB3" stroke-miterlimit="10"/>
<path opacity="0.6" d="M737.626 563.388C741.164 561.348 742.934 558.655 742.934 555.963C742.934 553.27 741.164 550.578 737.626 548.538L655.765 501.281C648.688 497.194 637.11 497.194 630.033 501.281L548.173 548.538C544.634 550.578 542.865 553.27 542.865 555.963C542.865 558.655 544.634 561.348 548.173 563.388L630.033 610.645C637.11 614.732 648.688 614.732 655.765 610.645L737.626 563.388Z" fill="url(#paint4_linear_352_1195)"/>
<path d="M737.626 590.67C741.164 588.63 742.934 585.937 742.934 583.245C742.934 580.552 741.164 577.86 737.626 575.82L655.765 528.563C648.688 524.476 637.11 524.476 630.033 528.563L548.173 575.82C544.634 577.86 542.865 580.552 542.865 583.245C542.865 585.937 544.634 588.63 548.173 590.67L630.033 637.927C637.11 642.014 648.688 642.014 655.765 637.927L737.626 590.67Z" fill="#240924" fill-opacity="0.42"/>
<path d="M737.626 613.405C741.164 611.365 742.934 608.672 742.934 605.98C742.934 603.288 741.164 600.595 737.626 598.555L655.765 551.298C648.688 547.211 637.11 547.211 630.033 551.298L548.173 598.555C544.634 600.595 542.865 603.288 542.865 605.98C542.865 608.672 544.634 611.365 548.173 613.405L630.033 660.662C637.11 664.749 648.688 664.749 655.765 660.662L737.626 613.405Z" fill="#240924" fill-opacity="0.36"/>
<path opacity="0.4" d="M743.01 466.199C746.597 464.126 748.391 461.391 748.391 458.657C748.391 455.922 746.597 453.187 743.01 451.114L660.034 403.114C652.86 398.962 641.124 398.962 633.95 403.114L550.974 451.114C547.387 453.187 545.594 455.922 545.594 458.657C545.594 461.391 547.387 464.126 550.974 466.199L633.95 514.199C641.124 518.351 652.86 518.351 660.034 514.199L743.01 466.199Z" fill="url(#paint5_linear_352_1195)"/>
<path opacity="0.2" d="M742.918 559.577L746.57 463.658L647.152 520.319L546.516 463.658L542.864 557.554L643.5 614.619L742.918 559.577Z" fill="url(#paint6_linear_352_1195)"/>
<path d="M656.012 514.924L579.219 559.152V493.75C579.219 493.285 579.464 492.858 579.871 492.625L654.72 449.515C655.295 449.185 656.012 449.599 656.012 450.265V514.924Z" fill="white"/>
<path d="M654.826 516.683L581.087 559.152V496.35C581.087 495.904 581.326 495.49 581.714 495.27L653.587 453.874C654.142 453.557 654.826 453.958 654.826 454.592V516.676V516.683Z" fill="#151823"/>
<path d="M655.968 514.943L579.175 559.172L635.74 591.495C636.14 591.721 636.631 591.721 637.025 591.495L711.867 548.391C712.448 548.061 712.442 547.22 711.867 546.891L655.968 514.949V514.943Z" fill="#F1F1F6"/>
<path d="M664.599 549.309C664.328 549.154 663.998 549.154 663.727 549.309L641.181 562.573C640.613 562.91 640.613 563.731 641.181 564.067L657.535 573.613C657.807 573.768 658.136 573.768 658.407 573.613L680.953 560.349C681.521 560.012 681.521 559.191 680.953 558.855L664.599 549.309Z" fill="#D1D9F3"/>
<path d="M614.996 487.044L592.289 499.965" stroke="url(#paint7_linear_352_1195)" stroke-linecap="round"/>
<path d="M587.375 501.95V539.686" stroke="#503E68" stroke-linecap="round"/>
<path d="M603.342 531.596L591.985 538.057" stroke="url(#paint8_linear_352_1195)" stroke-linecap="round"/>
<path d="M599.628 502.862L635.713 482.271" stroke="url(#paint9_linear_352_1195)" stroke-linecap="round"/>
<path d="M618.018 498.588L595.31 511.509" stroke="url(#paint10_linear_352_1195)" stroke-linecap="round"/>
<path d="M618.018 516.747L595.31 529.669" stroke="url(#paint11_linear_352_1195)" stroke-linecap="round"/>
<path d="M599.628 515.835L626.086 500.728" stroke="url(#paint12_linear_352_1195)" stroke-linecap="round"/>
<path d="M599.622 521.455L610.979 514.995" stroke="url(#paint13_linear_352_1195)" stroke-linecap="round"/>
<defs>
<filter id="filter0_f_352_1195" x="0" y="0" width="1356" height="1185.42" filterUnits="userSpaceOnUse" color-interpolation-filters="sRGB">
<feFlood flood-opacity="0" result="BackgroundImageFix"/>
<feBlend mode="normal" in="SourceGraphic" in2="BackgroundImageFix" result="shape"/>
<feGaussianBlur stdDeviation="200" result="effect1_foregroundBlur_352_1195"/>
</filter>
<linearGradient id="paint0_linear_352_1195" x1="1005.1" y1="726.643" x2="667.703" y2="221.276" gradientUnits="userSpaceOnUse">
<stop stop-color="#4BA1FC"/>
<stop offset="1" stop-color="#EC2AED"/>
</linearGradient>
<linearGradient id="paint1_linear_352_1195" x1="875.706" y1="569.149" x2="875.706" y2="593.703" gradientUnits="userSpaceOnUse">
<stop stop-color="#00ECA5"/>
<stop offset="1" stop-color="#02C27D"/>
</linearGradient>
<linearGradient id="paint2_linear_352_1195" x1="647.445" y1="698.284" x2="673.234" y2="735.712" gradientUnits="userSpaceOnUse">
<stop stop-color="#8EEFF8"/>
<stop offset="0.0001" stop-color="#A0E6F9"/>
<stop offset="1" stop-color="#33B0E4"/>
</linearGradient>
<linearGradient id="paint3_linear_352_1195" x1="439.724" y1="455.86" x2="462.128" y2="417.089" gradientUnits="userSpaceOnUse">
<stop stop-color="#4BA1FC"/>
<stop offset="1" stop-color="#EC2AED"/>
</linearGradient>
<linearGradient id="paint4_linear_352_1195" x1="525.198" y1="596.097" x2="618.179" y2="428.856" gradientUnits="userSpaceOnUse">
<stop stop-color="#4BA1FC"/>
<stop offset="1" stop-color="#EC2AED"/>
</linearGradient>
<linearGradient id="paint5_linear_352_1195" x1="527.686" y1="499.423" x2="622.235" y2="329.715" gradientUnits="userSpaceOnUse">
<stop stop-color="#4BA1FC"/>
<stop offset="1" stop-color="#EC2AED"/>
</linearGradient>
<linearGradient id="paint6_linear_352_1195" x1="524.876" y1="591.598" x2="660.191" y2="402.007" gradientUnits="userSpaceOnUse">
<stop stop-color="#4BA1FC"/>
<stop offset="1" stop-color="#EC2AED"/>
</linearGradient>
<linearGradient id="paint7_linear_352_1195" x1="592.844" y1="493.13" x2="615.345" y2="493.909" gradientUnits="userSpaceOnUse">
<stop stop-color="#51FFEA"/>
<stop offset="1" stop-color="#22BAFA"/>
</linearGradient>
<linearGradient id="paint8_linear_352_1195" x1="590.358" y1="533.763" x2="603.536" y2="535.671" gradientUnits="userSpaceOnUse">
<stop stop-color="#51FFEA"/>
<stop offset="1" stop-color="#22BAFA"/>
</linearGradient>
<linearGradient id="paint9_linear_352_1195" x1="616.292" y1="504.99" x2="618.255" y2="487.316" gradientUnits="userSpaceOnUse">
<stop stop-color="#4CA0FC"/>
<stop offset="1" stop-color="#E02FEE"/>
</linearGradient>
<linearGradient id="paint10_linear_352_1195" x1="605.789" y1="512.951" x2="607.758" y2="495.187" gradientUnits="userSpaceOnUse">
<stop stop-color="#4CA0FC"/>
<stop offset="1" stop-color="#E02FEE"/>
</linearGradient>
<linearGradient id="paint11_linear_352_1195" x1="605.789" y1="531.111" x2="607.758" y2="513.346" gradientUnits="userSpaceOnUse">
<stop stop-color="#4CA0FC"/>
<stop offset="1" stop-color="#E02FEE"/>
</linearGradient>
<linearGradient id="paint12_linear_352_1195" x1="611.837" y1="517.465" x2="613.806" y2="499.739" gradientUnits="userSpaceOnUse">
<stop stop-color="#4CA0FC"/>
<stop offset="1" stop-color="#E02FEE"/>
</linearGradient>
<linearGradient id="paint13_linear_352_1195" x1="604.845" y1="522.309" x2="606.847" y2="504.324" gradientUnits="userSpaceOnUse">
<stop stop-color="#4CA0FC"/>
<stop offset="1" stop-color="#E02FEE"/>
</linearGradient>
</defs>
</svg>
