<svg width="60" height="60" viewBox="0 0 60 60" fill="none" xmlns="http://www.w3.org/2000/svg">
<rect width="60" height="60" rx="13" fill="#0A0619"/>
<path d="M30.3979 24.5305L31.8019 23.1332C30.4996 22.5561 29.5026 21.4222 29.1108 20.0351L27.4932 21.6449C26.7352 21.1842 25.4532 20.7084 24.9954 20.6223V17.3115H20.9308V20.6223C20.4018 20.7337 19.1911 21.1842 18.4331 21.6449L16.0778 19.301L13.1781 22.1866L15.5335 24.5305C15.0705 25.2847 14.628 26.52 14.5059 27.0161H11.1738V30.2509H14.5008C14.6686 31.4861 15.0654 32.7922 15.5284 33.5465L13.173 35.8904L16.0727 38.7759L18.428 36.4321C19.186 36.8927 20.534 37.2421 20.9308 37.4597V40.7705H24.9954V37.4597C25.3871 37.2471 26.7352 36.8978 27.4932 36.4371L29.8485 38.781L32.7481 35.8955L30.3928 33.5516C30.8557 32.7973 31.2067 32.2657 31.4204 30.256H34.7473V27.0211H31.4204C31.2118 26.1656 30.8557 25.2898 30.3928 24.5305H30.3979ZM22.9657 33.4908C20.4933 33.4908 18.4941 31.4963 18.4941 29.041C18.4941 26.5858 20.4984 24.5912 22.9657 24.5912C25.4329 24.5912 27.4372 26.5858 27.4372 29.041C27.4372 31.4963 25.4329 33.4908 22.9657 33.4908Z" fill="#9544B5"/>
<path d="M48.8943 40.1578V37.7684H46.4372C46.2846 37.1407 46.0201 36.4876 45.6793 35.9308L47.3529 34.3209L45.2723 32.1239L43.5376 33.7995C42.978 33.4603 42.0318 33.111 41.691 33.0452V30.6001H38.6896V33.0452C38.2979 33.1313 37.4026 33.4603 36.843 33.7995L35.1032 32.0682L32.9616 34.1994L34.7014 35.9308C34.3605 36.4876 34.0299 37.3989 33.9434 37.7684H31.4863V40.1578H33.9434C34.0655 41.0691 34.3605 42.036 34.7014 42.5928L32.9616 44.3242L35.1032 46.4554L36.843 44.7241C37.4026 45.0633 38.3997 45.3215 38.6896 45.4835V47.9286H41.691V45.4835C41.981 45.3265 42.978 45.0683 43.5376 44.7292L45.2774 46.4605L47.419 44.3292L45.6793 42.5979C46.0201 42.041 46.2795 41.6462 46.4372 40.1629H48.8943V40.1578ZM40.1903 42.5473C38.3641 42.5473 36.8888 41.0741 36.8888 39.2618C36.8888 37.4495 38.3691 35.9763 40.1903 35.9763C42.0115 35.9763 43.4918 37.4495 43.4918 39.2618C43.4918 41.0741 42.0115 42.5473 40.1903 42.5473Z" fill="#9544B5"/>
<path fill-rule="evenodd" clip-rule="evenodd" d="M41.6239 16.7327C41.6239 19.8593 39.0655 22.3939 35.9096 22.3939C32.7537 22.3939 30.1953 19.8593 30.1953 16.7327C30.1953 13.6061 32.7537 11.0715 35.9096 11.0715C39.0655 11.0715 41.6239 13.6061 41.6239 16.7327ZM34.8395 19.2117C34.9478 19.3321 35.0943 19.4019 35.2535 19.4019H35.2663L35.2599 19.3955C35.4128 19.3955 35.5593 19.3385 35.6676 19.2243L38.9739 15.7756C39.1905 15.5538 39.1777 15.1988 38.9548 14.9832C38.7318 14.7677 38.3751 14.7803 38.1585 15.0022L35.279 18.0072L33.9667 16.5364C33.7628 16.3018 33.4061 16.2828 33.1704 16.4857C32.9347 16.6949 32.9156 17.0436 33.1194 17.2781L34.8395 19.2117Z" fill="#9544B5"/>
</svg>
