<svg width="19" height="22" viewBox="0 0 19 22" fill="none" xmlns="http://www.w3.org/2000/svg">
<path d="M18.2862 4.23589C16.8655 3.91125 15.7465 2.75942 15.4318 1.29185C15.3908 1.10285 15.2183 0.973877 15.0308 0.973877H4.25122C4.06366 0.973877 3.89118 1.10285 3.85022 1.29185C3.53546 2.7572 2.4187 3.91125 0.995795 4.23589C0.812543 4.27814 0.6875 4.45603 0.6875 4.64948V12.7278C0.6875 17.2417 8.52424 21.1241 9.64316 21.1241C10.7621 21.1241 18.5988 17.2395 18.5988 12.7278V4.6517C18.5988 4.45825 18.4738 4.28036 18.2905 4.23811L18.2862 4.23589ZM9.13221 14.6312L5.2451 11.2914L6.27131 10.0195L8.92308 12.2986L13.375 6.7619L14.6104 7.8181L9.13221 14.6312Z" fill="#23BAFA"/>
</svg>
