<svg width="17" height="12" viewBox="0 0 17 12" fill="none" xmlns="http://www.w3.org/2000/svg">
<path d="M16.1338 1.76726C15.9458 1.07621 15.3948 0.531458 14.696 0.345379C13.4194 3.00459e-08 8.3129 0 8.3129 0C8.3129 0 3.2066 3.00459e-08 1.93001 0.332284C1.24466 0.518166 0.680192 1.07631 0.492202 1.76726C0.15625 3.02945 0.15625 5.64706 0.15625 5.64706C0.15625 5.64706 0.15625 8.27786 0.492202 9.52686C0.680391 10.2178 1.23122 10.7626 1.9301 10.9486C3.22005 11.2941 8.3131 11.2941 8.3131 11.2941C8.3131 11.2941 13.4194 11.2941 14.696 10.9618C15.3949 10.7759 15.9458 10.2311 16.134 9.54015C16.4699 8.27786 16.4699 5.66035 16.4699 5.66035C16.4699 5.66035 16.4833 3.02945 16.1338 1.76726ZM6.6871 8.0653V3.22882L10.9334 5.64706L6.6871 8.0653Z" fill="#FFF"/>
</svg>
